<?xml version="1.0" encoding="UTF-8" standalone="no"?>
<!-- Created with Inkscape (http://www.inkscape.org/) -->

<svg
   version="1.1"
   id="svg1"
   width="665.51312"
   height="755.5"
   viewBox="0 0 665.51312 755.5"
   xmlns="http://www.w3.org/2000/svg"
   xmlns:svg="http://www.w3.org/2000/svg">
  <defs
     id="defs1" />
  <g
     id="g1"
     transform="translate(-61.547729,-130.52185)">
    <g
       id="g2"
       transform="translate(14.290486,2.5218509)">
      <path
         style="fill:#b9b9b9;fill-opacity:1"
         d="m 272.43564,873.5 c 0.37142,-5.5 1.45993,-15.96998 2.41893,-23.26663 l 1.74362,-13.26663 -2.27828,-1.49279 c -1.25306,-0.82103 -2.9025,-2.72605 -3.66542,-4.23337 -1.94019,-3.83326 -3.54363,-25.00115 -4.31705,-56.99176 l -0.65884,-27.25119 -5.11289,-3.86026 c -10.2028,-7.7032 -28.49481,-25.32568 -48.52829,-46.75206 -11.25441,-12.03692 -23.85441,-25.31877 -28,-29.51521 -7.2882,-7.37763 -7.73226,-7.65338 -13.43027,-8.33981 -10.27726,-1.23808 -29.37679,-6.38498 -35.85565,-9.66229 -3.43832,-1.73927 -11.33554,-5.31495 -17.54936,-7.94594 -6.21383,-2.631 -16.56469,-8.12695 -23.001907,-12.21321 -6.43722,-4.08627 -14.469961,-8.82581 -17.850536,-10.53232 C 70.049771,614.99633 66,611.03227 66,608.04586 c 0,-1.1388 -2.466906,-2.76855 -7.615742,-5.03129 -8.838568,-3.88427 -11.801117,-7.36965 -10.971671,-12.90797 0.682838,-4.55939 3.840549,-7.68111 9.112475,-9.00859 6.190726,-1.55885 26.9556,-1.35936 41.012945,0.394 C 116.68036,583.87962 135,583.13695 135,579.97332 c 0,-1.24244 -5.39724,-3.9295 -17.64234,-8.78339 -20.981497,-8.31696 -30.405231,-17.4557 -27.397567,-26.56901 1.490119,-4.51511 4.084913,-6.68314 8.747075,-7.30847 4.230652,-0.56745 9.932532,1.44269 29.914002,10.54587 6.11664,2.78663 16.93654,6.82147 24.04422,8.96632 15.72665,4.74575 20.52606,6.81944 29.33183,12.67351 10.24548,6.81118 17.41088,15.15438 23.13979,26.94334 2.68839,5.53218 5.76809,10.79409 6.84378,11.69312 2.67631,2.23682 39.04145,23.18343 39.46031,22.72946 0.18476,-0.20024 0.65164,-5.31407 1.03753,-11.36407 l 0.7016,-11 -4.60786,-3.2419 c -7.06204,-4.96856 -7.297,-6.07562 -4.67883,-22.04505 1.23653,-7.54218 3.98626,-24.51305 6.11052,-37.71305 10.75404,-66.82492 14.59543,-79.49431 27.7447,-91.50548 3.71318,-3.3918 13.27624,-10.47174 21.25124,-15.73319 7.975,-5.26146 14.59154,-9.62671 14.70341,-9.70055 0.11188,-0.0739 0.76921,-4.38391 1.46075,-9.57792 1.49874,-11.25682 1.86665,-11.75397 20.28701,-27.41368 C 349.2948,379.80029 350.57098,379 355.49459,379 h 3.62608 l -0.68045,-9.75 c -0.37424,-5.3625 -1.05518,-10.15629 -1.51319,-10.65286 -0.45801,-0.49657 -7.07007,-1.90413 -14.69346,-3.12791 -23.96122,-3.84648 -23.7803,-3.61115 -30.72973,-39.96923 -1.9974,-10.45 -4.95288,-24.11108 -6.56774,-30.35797 -3.33595,-12.90475 -3.72415,-21.56385 -1.51446,-33.78156 C 305.49776,239.8813 306.26316,232 305.30186,232 c -0.46313,0 -4.20801,0.98462 -8.32196,2.18804 -5.85033,1.71135 -10.20315,2.20153 -19.9799,2.25 C 265.59758,236.49456 264.06109,236.28048 259.50145,234 246.25321,227.37397 246.9607,213.46989 261,204.54942 c 3.69016,-2.34471 23.26485,-10.22529 38.619,-15.54764 l 9.11899,-3.16101 2.22031,-7.67038 c 4.95283,-17.1103 14.86073,-30.48129 27.73614,-37.43071 C 350.52323,134.35517 375.3789,128 388.52052,128 c 12.30872,0 37.01259,6.44529 52.09406,13.59144 20.02337,9.48781 40.26043,30.65796 45.62931,47.7332 3.01096,9.57611 2.9776,28.23908 -0.0864,48.30518 -1.1866,7.7714 -2.15749,15.62177 -2.15749,17.44528 0,2.10719 -0.86606,4.24649 -2.37646,5.87018 -1.30705,1.4051 -3.36933,5.59398 -4.58283,9.30862 -1.2135,3.71465 -5.0941,12.36292 -8.62354,19.21837 -5.50787,10.69827 -6.41699,13.21287 -6.41588,17.7461 0.001,4.7632 3.38988,21.15495 6.11084,29.55915 l 1.06114,3.27753 3.44816,-3.02753 c 6.03043,-5.29478 9.305,-4.10941 13.91025,5.03538 5.5966,11.11337 13.08441,23.24731 16.12943,26.13764 3.84995,3.65436 15.30373,8.80747 43.83889,19.72333 46.63369,17.83927 55.89876,22.14467 66.95018,31.11118 13.61073,11.043 16.53274,16.45173 41.84965,77.46495 5.24901,12.65 12.07363,29.075 15.16582,36.5 17.87498,42.92154 18.51545,45.21369 13.01912,46.59318 -1.36662,0.343 -2.48477,1.01863 -2.48477,1.50141 0,0.48278 2.74259,7.74649 6.09464,16.14159 9.10997,22.81563 19.69643,52.07125 21.93445,60.6158 4.33643,16.55601 4.98728,35.37907 1.51142,43.71189 -5.23546,12.55119 -31.95308,28.29856 -68.54051,40.39776 -18.85469,6.23512 -39.34124,11.08095 -69,16.32107 l -7.5,1.3251 -0.71184,8.9461 c -2.42363,30.45887 -4.11147,45.17064 -5.48764,47.83185 -0.83296,1.61076 -3.47294,5.02242 -5.86662,7.58146 l -4.35215,4.65281 3.85748,13.43999 c 3.73076,12.99846 8.91531,39.41878 7.92886,40.40523 -0.26607,0.26607 -65.42417,0.60775 -144.79576,0.75927 L 271.76034,883.5 Z M 348.5,726 c 0.40709,-0.65869 -10.28104,-1 -31.31526,-1 -34.87219,0 -37.79211,-0.38818 -43.54373,-5.78885 -5.90089,-5.54083 -5.64245,-0.69653 -5.62456,-105.42903 l 0.0164,-96.28212 2.23355,-3.94126 c 1.50814,-2.66123 3.84866,-4.77228 7.20652,-6.5 L 282.4459,504.5 418.47292,504.19243 c 98.53676,-0.2228 137.47717,0.004 141.28862,0.82431 6.04432,1.30026 10.90756,4.94719 12.87438,9.65445 1.12,2.68053 1.36403,20.49651 1.36403,99.5848 v 96.32023 l -2.25,4.43485 c -3.56321,7.02325 -9.11062,9.31963 -24.19456,10.01549 -7.39951,0.34135 -11.3787,0.87148 -10.30318,1.37265 0.96374,0.44907 6.81374,0.64765 13,0.44128 13.58088,-0.45306 19.27785,-2.6624 23.56372,-9.13829 l 2.68402,-4.0555 0.26431,-98.08242 0.26431,-98.08243 -2.26431,-4.48285 c -2.48133,-4.9125 -7.01038,-8.44963 -12.82343,-10.01492 -2.47115,-0.66541 -51.27713,-0.92138 -142.59896,-0.74787 L 280.5,502.5 l -4.81598,2.37115 c -3.02543,1.48957 -5.81389,3.87896 -7.5,6.42664 l -2.68402,4.0555 -0.26449,97.83479 c -0.25612,94.7394 -0.20384,97.95307 1.65268,101.57335 2.71148,5.28749 6.23153,8.24231 12.32745,10.34796 4.67374,1.6144 8.94632,1.82909 36.97534,1.85796 C 336.27549,726.98804 348.10831,726.63376 348.5,726 Z M 538.25,710.20581 C 554.51221,710.01725 556.16764,709.83236 558,708 c 1.97117,-1.97117 2,-3.33333 2,-94.5 0,-106.23695 1.09469,-95.75748 -10.11953,-96.87474 -3.50926,-0.34963 -64.42246,-0.44089 -135.36268,-0.20282 l -128.9822,0.43286 -1.7678,2.18313 C 282.10598,521.09069 282,526.747 282,613.38828 c 0,81.7996 0.1751,92.4167 1.5567,94.38921 L 285.11341,710 h 80.53984 80.53985 l 4.53078,-3.98815 c 9.36321,-8.24183 17.85094,-7.94553 48.69209,1.69976 5.81195,1.81764 11.03407,2.77301 15,2.7442 3.34622,-0.0243 14.07153,-0.1368 23.83403,-0.25 z m 56.02081,-43.04229 c 1.52394,-1.41766 4.3932,-4.93322 6.37613,-7.81234 l 3.60532,-5.23477 -5.56746,-8.82354 c -3.06211,-4.85294 -5.86701,-9.60414 -6.23312,-10.5582 -1.6903,-4.40485 -1.81562,-3.70823 -6.24428,34.71141 l -0.45487,3.94609 2.87373,-1.82554 c 1.58056,-1.00404 4.1206,-2.98544 5.64455,-4.40311 z"
         id="path8" />
      <path
         style="fill:#a3a3a3;fill-opacity:1"
         d="m 272.53873,873.25 c 0.39896,-5.3625 1.5066,-15.6 2.46143,-22.75 l 1.73605,-13 -2.7958,-2.26589 c -1.53768,-1.24624 -3.26561,-3.72124 -3.83983,-5.5 -1.40616,-4.35582 -2.85699,-26.87433 -3.69849,-57.40485 l -0.69378,-25.17074 -8.60415,-6.96704 c -11.60319,-9.39543 -31.29623,-28.88658 -57.78643,-57.19399 l -21.99376,-23.50252 -10.8608,-1.83752 c -13.89945,-2.35162 -25.91057,-5.84317 -33.75976,-9.81373 -3.41187,-1.72591 -11.15341,-5.23685 -17.20341,-7.80207 -6.05,-2.56522 -15.521616,-7.60171 -21.048037,-11.19219 -5.52642,-3.59048 -13.307985,-8.2412 -17.292366,-10.33493 -7.305631,-3.839 -11.15711,-7.42716 -11.162557,-10.39939 -0.0019,-1.03772 -2.872411,-2.96565 -8.029363,-5.39279 -6.464853,-3.0427 -8.343625,-4.44287 -9.65693,-7.1969 -3.09096,-6.48181 0.804169,-12.60529 9.266647,-14.56798 5.911312,-1.37099 24.318663,-1.11892 38.922606,0.53301 20.48698,2.3174 38.5,1.65187 38.5,-1.42247 0,-1.35165 -3.92457,-3.48023 -13,-7.05084 -24.753654,-9.739 -34.630583,-18.52781 -31.906988,-28.39186 1.385234,-5.01691 5.917763,-7.88588 11.555568,-7.31439 2.28171,0.2313 8.80671,2.55097 14.5,5.15484 17.68479,8.08826 25.88073,11.28759 39.85142,15.55621 16.75529,5.11943 26.8395,10.77747 36.6691,20.57428 5.89558,5.87591 8.10187,9.05489 12.41995,17.8956 4.7367,9.69779 5.74825,11.06768 10.33089,13.99067 8.8016,5.61398 35.64411,20.78676 36.05227,20.3786 0.21482,-0.21481 0.70769,-5.40214 1.09528,-11.52739 l 0.7047,-11.13681 -4.1108,-2.59504 c -8.41558,-5.31252 -8.34276,-2.8056 -1.33499,-45.95733 10.50735,-64.70118 13.44044,-78.66061 19.19396,-91.34973 4.10157,-9.04582 13.03217,-17.44649 31.58669,-29.71238 8.19112,-5.41493 15.00945,-9.94018 15.15183,-10.0561 0.14239,-0.11593 0.86286,-4.57469 1.60105,-9.90837 1.56834,-11.3318 0.98585,-10.53632 19.00978,-25.9604 14.90672,-12.7565 16.26862,-13.64291 20.97361,-13.65098 l 3.84333,-0.007 -0.69688,-9.75 c -0.38328,-5.3625 -1.21278,-10.26235 -1.84332,-10.88855 -0.63055,-0.6262 -6.33027,-1.87135 -12.66605,-2.76699 -15.59228,-2.20417 -18.92783,-3.25896 -22.59217,-7.14429 -3.67052,-3.89189 -6.00082,-11.70561 -9.82678,-32.95017 -1.3867,-7.7 -4.10532,-20.43796 -6.04137,-28.30658 -4.11457,-16.72275 -4.35055,-22.82889 -1.50973,-39.06435 C 305.95691,237.00439 306.43887,232 305.56371,232 c -0.23997,0 -5.07747,1.12442 -10.75,2.49871 -27.57522,6.68065 -47.41931,-0.79613 -44.42831,-16.73952 0.91237,-4.86338 6.88289,-11.36362 13.48011,-14.67614 5.14074,-2.5812 29.30099,-11.7899 40.06214,-15.26972 l 4.42765,-1.43176 3.14871,-9.44079 c 4.1545,-12.45639 7.68733,-19.16194 13.20116,-25.05667 8.88542,-9.49924 20.20672,-15.18682 40.79483,-20.49447 9.37288,-2.41634 12.84901,-2.82346 23.5,-2.75229 11.19037,0.0748 13.83284,0.46116 25.22154,3.68788 25.33,7.17665 37.8579,14.03703 53.34465,29.21196 9.88048,9.68155 15.75583,18.46352 18.68,27.92128 2.90855,9.40723 2.85875,28.44397 -0.12435,47.54153 -1.15981,7.425 -2.11169,15.15297 -2.11529,17.17327 -0.004,2.421 -0.83256,4.65494 -2.42948,6.55277 -1.33261,1.58371 -3.37838,5.7157 -4.54615,9.18218 -1.16778,3.46649 -5.28363,12.61147 -9.14635,20.3222 l -7.02312,14.01949 1.15511,7.12505 c 1.33018,8.20487 3.40916,17.04538 5.6206,23.90061 l 1.54056,4.77557 3.44594,-3.02557 c 3.81931,-3.3534 7.39376,-3.86529 9.84865,-1.4104 0.88835,0.88835 3.00068,4.37585 4.69408,7.75 6.84922,13.64734 14.19634,24.83879 17.76927,27.06691 5.02236,3.13199 18.26771,8.65052 50.56434,21.06707 31.96425,12.28876 43.72327,17.5349 52.10363,23.2454 6.58305,4.48578 15.02458,12.75781 19.00314,18.62158 3.61213,5.32373 12.11175,23.2782 19.23601,40.63387 3.27362,7.975 11.19535,27.1 17.60384,42.5 C 681.79115,560.58306 687,573.61226 687,575.41544 c 0,0.92267 -1.34715,2.44415 -2.99368,3.38107 -1.64652,0.93692 -2.99652,2.04745 -3,2.46785 -0.003,0.4204 2.51808,7.1704 5.60346,15 9.93648,25.21529 20.01521,53.02089 22.19616,61.23564 4.6284,17.43324 5.18622,36.22466 1.33299,44.90391 -3.20736,7.22443 -14.90701,16.11898 -32.97135,25.06615 -25.54006,12.64985 -54.71802,21.56185 -94.66758,28.9149 l -17,3.12899 -1.17357,13.99303 c -3.57145,42.5839 -3.93413,44.19556 -11.47975,51.01257 -2.58903,2.33903 -3.85909,4.24443 -3.54181,5.31358 5.71439,19.25604 11.69327,46.05348 11.69493,52.41687 1.1e-4,0.4125 -65.0668,0.75 -144.59312,0.75 H 271.81335 Z M 348.469,726.05017 c 0.3648,-0.59027 -12.01061,-1.06347 -32.69099,-1.25 -31.85664,-0.28735 -33.44886,-0.39212 -37.27801,-2.45285 -4.79923,-2.5828 -7.98885,-5.84987 -9.43339,-9.66242 C 268.33807,710.76207 268,679.42634 268,613.82105 c 0,-95.02679 0.0218,-96.08761 2.05329,-99.70207 2.54991,-4.53695 7.07843,-7.69939 12.94671,-9.04117 6.22838,-1.42411 270.79871,-1.42093 276.97995,0.003 5.64744,1.30127 10.823,5.203 12.62616,9.51855 1.15908,2.77409 1.39389,19.54417 1.39389,99.55246 0,93.94466 -0.0469,96.31239 -1.98516,100.28212 -3.74962,7.67941 -10.92581,10.49952 -26.82386,10.54127 -5.94556,0.0156 -9.08571,0.38576 -8.69098,1.02445 0.80715,1.306 20.90351,1.29342 25.61763,-0.016 5.47872,-1.52184 10.12439,-5.09408 12.70584,-9.77004 l 2.32347,-4.20866 -0.10752,-97.18541 c -0.10201,-92.19784 -0.20232,-97.39971 -1.95464,-101.3611 -2.0101,-4.54417 -6.63994,-8.5314 -11.984,-10.32066 -4.49376,-1.50457 -277.81722,-1.62237 -283.21841,-0.12207 -5.69994,1.58329 -10.19168,5.12264 -12.63237,9.95393 l -2.25,4.45382 v 96.72301 c 0,65.90773 0.33886,97.61988 1.06362,99.53811 1.98111,5.24345 8.07258,10.29486 14.92991,12.38076 3.72881,1.13425 66.77383,1.11978 67.47547,-0.0155 z m 100.28778,-18.20493 c 3.6996,-4.21073 11.66058,-7.82504 17.24322,-7.82847 5.39569,-0.003 16.40331,2.5667 31.99015,7.46892 l 11.49015,3.61377 23.34979,-0.29973 c 23.16582,-0.29737 23.36484,-0.31833 25.25985,-2.66051 C 559.93917,705.85362 560,702.83942 560,613.5 c 0,-89.36682 -0.0603,-92.35292 -1.91165,-94.63922 L 556.17671,516.5 H 421 285.82329 l -1.91164,2.36078 C 282.06043,521.14695 282,524.1282 282,613.17653 c 0,63.15256 0.3337,92.57847 1.06537,93.94562 0.58596,1.09486 2.04846,2.38619 3.25,2.86961 1.20155,0.48342 37.62518,0.90072 80.94141,0.92733 l 78.75678,0.0484 z m 142.50874,-37.91258 c 5.37414,-4.42981 13.03429,-14.70899 12.32967,-16.5452 -0.90486,-2.35802 -12.02722,-20.28352 -12.61967,-20.33865 -0.46122,-0.0429 -5.0448,35.47163 -4.99485,38.70119 0.0299,1.93143 1.24308,1.51423 5.28485,-1.81734 z"
         id="path7" />
      <path
         style="fill:#8c8c8c;fill-opacity:1"
         d="m 272.50535,874.25 c 0.37669,-4.8125 1.50973,-15.05 2.51787,-22.75 l 1.83298,-14 -2.85579,-2.26589 c -1.57069,-1.24624 -3.31913,-3.72124 -3.88544,-5.5 C 268.4484,824.49942 267,797.63695 267,771.96304 v -23.87785 l -7.25,-5.72751 C 249.76633,734.47058 221.39753,706.40909 199.74226,683 c -9.92147,-10.725 -18.82306,-20.33829 -19.78131,-21.36288 -1.16946,-1.25042 -5.1212,-2.48084 -12.01977,-3.74251 -16.19073,-2.96109 -28.17501,-6.48707 -36.81703,-10.83219 -4.39011,-2.2073 -11.95149,-5.65589 -16.80308,-7.66353 C 109.46948,637.39124 100.775,632.71568 95,629.00875 c -5.775,-3.70694 -12.975,-7.97572 -16,-9.48618 -7.985298,-3.98726 -11.751484,-7.1146 -12.46161,-10.34778 -0.522341,-2.37821 -1.921353,-3.45506 -8.472875,-6.52178 -6.45182,-3.02005 -8.150475,-4.31228 -9.552555,-7.26694 -2.442712,-5.14763 -0.501718,-10.13712 4.991366,-12.83071 5.741614,-2.81547 22.02777,-3.22231 42.005251,-1.04931 8.794733,0.95662 19.664503,1.73168 24.155043,1.72236 8.00366,-0.0166 15.33538,-1.55817 15.33538,-3.2244 0,-1.40784 -5.94657,-4.4894 -17.48412,-9.06043 C 99.040741,563.62396 90,556.02537 90,547.81693 c 0,-7.30426 5.415626,-11.71194 12.70907,-10.34369 2.05832,0.38615 9.15332,3.18255 15.76667,6.21423 16.73069,7.66967 24.46108,10.65443 37.09475,14.32259 13.59476,3.94721 24.02957,9.29238 33.01365,16.91106 8.37424,7.10153 12.31179,12.40943 17.44011,23.50966 3.13413,6.78382 4.71717,8.97976 8.18093,11.34836 C 219.30721,613.26802 250.09554,631 251.05132,631 251.85579,631 253,620.69343 253,613.44711 c 0,-5.16243 -0.0918,-5.32548 -4.97625,-8.83458 -2.73693,-1.96629 -5.23546,-4.60785 -5.55227,-5.87013 -0.52049,-2.07382 3.07471,-25.72214 11.59097,-76.2424 5.69807,-33.80223 10.13452,-50.24666 16.10283,-59.68786 3.9729,-6.28468 13.54771,-14.32644 29.76081,-24.99574 7.38435,-4.85939 13.61144,-9.02059 13.83797,-9.24712 0.22653,-0.22653 1.02054,-4.7698 1.76447,-10.09616 C 317.06979,407.43808 316.58804,408.16769 330,396.55601 348.61048,380.4436 350.67917,379 355.15783,379 h 4.08001 l -0.70544,-9.75 c -0.38799,-5.3625 -1.22901,-10.27272 -1.86892,-10.91161 C 356.02357,357.6995 350.325,356.4379 344,355.53482 c -15.0209,-2.14466 -18.70774,-3.30923 -22.50824,-7.10972 -3.7438,-3.74381 -5.16585,-8.44525 -9.50518,-31.4251 -1.71364,-9.075 -4.66166,-22.78495 -6.55115,-30.46656 -3.98792,-16.21267 -4.19269,-21.58734 -1.42508,-37.40437 C 306.19382,236.65046 306.48424,232 305.08005,232 c -0.50597,0 -5.79102,1.17386 -11.74454,2.60858 -18.77237,4.5239 -34.75598,2.22714 -40.48416,-5.81734 -3.17115,-4.45347 -3.42159,-10.45072 -0.6366,-15.24473 4.48591,-7.72194 12.09673,-11.69234 44.18253,-23.04909 l 11.89727,-4.21103 3.67968,-10.3932 c 5.12988,-14.48931 7.41681,-18.51541 14.42394,-25.39319 6.86792,-6.74113 16.10527,-11.95214 28.10183,-15.8529 26.31328,-8.55594 40.78195,-8.45161 68.34019,0.49279 20.94411,6.79769 30.96819,12.82978 45.54641,27.408 20.23319,20.23319 23.59811,35.46007 17.11579,77.45211 -0.80658,5.225 -1.47459,11.43295 -1.48445,13.79545 -0.0133,3.1854 -0.63828,4.9158 -2.41842,6.69594 -1.32026,1.32026 -3.40961,5.4623 -4.64301,9.20454 -1.2334,3.74224 -5.37561,13.08026 -9.20493,20.75115 l -6.96239,13.94708 1.2088,7.55292 c 1.19939,7.49409 5.58777,25.57365 6.60812,27.22461 0.29244,0.47318 2.17823,-0.49688 4.19064,-2.15569 2.01242,-1.6588 4.64875,-3.016 5.85851,-3.016 2.79719,0 4.27951,2.03373 12.84474,17.62281 3.85,7.00716 8.5825,14.35359 10.51666,16.32541 3.98969,4.06734 15.69761,9.24893 54.48334,24.11275 42.85792,16.42441 52.14728,21.35987 63.71107,33.84982 8.21304,8.87085 13.48805,19.12046 28.60922,55.58921 6.61341,15.95 15.49262,37.325 19.73157,47.5 C 680.50982,557.70338 687,574.12401 687,575.67514 c 0,0.77983 -1.34715,2.18445 -2.99368,3.12137 -1.64652,0.93692 -2.99652,2.18119 -3,2.76505 -0.003,0.58386 2.06192,6.20886 4.58978,12.5 8.64043,21.5037 20.57238,54.42938 22.98948,63.43844 3.29495,12.28096 4.91017,29.36658 3.49827,37.00424 -1.54431,8.35392 -3.91472,12.31393 -10.66732,17.82082 -22.30226,18.188 -65.82394,34.27781 -118.4515,43.7911 l -17.73487,3.20587 -0.64085,8.08898 c -2.2786,28.7613 -3.74307,43.56405 -4.63025,46.80224 -0.6038,2.2039 -3.07398,5.82475 -6.07704,8.90787 l -5.05971,5.19462 3.60401,12.59213 c 3.45109,12.05784 6.67458,27.21564 7.94126,37.34213 l 0.59416,4.75 H 416.3911 271.82046 Z M 349,726.0612 c 0,-0.56001 -13.41594,-1.06437 -33.25,-1.25 -31.81662,-0.29778 -33.42244,-0.404 -37.25,-2.46388 -4.79923,-2.5828 -7.98885,-5.84987 -9.43339,-9.66242 C 268.33826,710.76258 268,679.62438 268,614.5 c 0,-65.12438 0.33826,-96.26258 1.06661,-98.1849 1.44454,-3.81255 4.63416,-7.07962 9.43339,-9.66242 l 4,-2.15268 h 139 139 l 4.5,2.5 c 3.15393,1.75218 5.17303,3.83467 6.75,6.96189 l 2.25,4.46189 -0.006,95.03811 c -0.004,61.4382 -0.36573,96.33481 -1.02429,98.70584 C 570.65936,720.48737 560.91455,725 545.25948,725 c -5.99703,0 -9.15472,0.36049 -8.75948,1 0.35558,0.57535 5.58263,0.99585 12.30902,0.99023 10.20597,-0.009 12.34096,-0.31241 16.80801,-2.39239 5.13815,-2.39245 9.44187,-6.94135 10.97274,-11.59784 1.14474,-3.48198 0.50142,-193.5933 -0.6705,-198.14225 -1.16413,-4.51872 -7.38455,-10.3378 -12.59849,-11.78563 -2.61058,-0.72491 -47.84773,-1.05578 -142.82078,-1.04458 -137.59843,0.0162 -139.04519,0.0369 -143.48202,2.04941 -5.68139,2.57705 -7.73567,4.4529 -10.23117,9.34252 -1.96217,3.84462 -1.9982,5.76973 -1.88645,100.79921 0.0939,79.84442 0.35621,97.45963 1.49184,100.17757 1.62827,3.897 8.00738,9.52018 12.74488,11.23461 C 283.2837,727.13145 349,727.53625 349,726.0612 Z m 99.83588,-18.05309 c 2.62468,-3.55006 8.43447,-6.70789 13.96964,-7.593 5.04217,-0.80628 16.40813,1.46816 33.38423,6.6805 l 13.04564,4.00552 23.47224,-0.30056 c 23.29412,-0.29829 23.48674,-0.31849 25.38231,-2.66135 C 559.93922,705.85356 560,702.83697 560,613.34376 V 520.90909 L 557.54545,518.45455 555.09091,516 H 421 286.90909 l -2.45454,2.45455 L 282,520.90909 V 613.5 706.09091 l 2.45455,2.45454 2.45454,2.45455 h 79.8574 79.85739 z m 143.45894,-39.03642 c 5.43637,-4.78528 11.99007,-13.42937 11.53097,-15.20891 -0.47084,-1.82501 -12.21939,-20.74319 -12.88853,-20.75383 -0.53292,-0.008 -5.01426,34.52867 -4.96193,38.24105 0.0368,2.61155 1.26898,2.16733 6.31949,-2.27831 z"
         id="path6" />
      <path
         style="fill:#767676;fill-opacity:1"
         d="m 272.59341,874.75 c 0.35212,-4.5375 1.45549,-14.7725 2.45194,-22.74445 l 1.81172,-14.49446 -3.34774,-3.06641 c -2.08472,-1.90953 -3.56154,-4.36391 -3.91443,-6.50554 C 268.21426,819.5603 267,793.23092 267,771.67256 V 748.2199 l -10.75,-8.99852 c -11.80999,-9.88581 -43.03652,-41.23498 -64.54999,-64.80349 l -13.76703,-15.08211 -8.11124,-1.24169 C 156.93621,656.12154 142.04909,652.03635 135,648.53862 c -3.575,-1.7739 -11.65127,-5.41962 -17.94727,-8.1016 -6.296,-2.68198 -15.296,-7.32581 -20.000003,-10.31961 -4.704,-2.99381 -13.008881,-7.92759 -18.45529,-10.96395 -8.42579,-4.69735 -10.117464,-6.06773 -11.343587,-9.18914 -1.202903,-3.06229 -2.584441,-4.22164 -8.360598,-7.01596 -10.438647,-5.0499 -13.116113,-9.08588 -10.376826,-15.64192 0.975086,-2.33371 2.582341,-3.86996 5.197585,-4.96797 5.164743,-2.16843 22.334518,-2.85996 35.285989,-1.42119 23.7689,2.64047 31.46214,3.04727 37.98398,2.0085 3.58381,-0.57082 6.96602,-1.49457 7.51602,-2.0528 1.62752,-1.65184 -2.57361,-4.31268 -13.21776,-8.37163 -25.253017,-9.62975 -34.983599,-19.28365 -30.143683,-29.90611 1.184741,-2.60022 6.312943,-5.60753 9.512573,-5.57842 1.88477,0.0171 8.87548,2.82853 29.34887,11.80294 6.325,2.77253 17.41987,6.82536 24.65526,9.00629 15.75473,4.74887 24.89286,9.36168 33.79521,17.0594 8.05098,6.96156 12.58254,13.06912 17.52099,23.61455 2.06053,4.4 4.5974,8.72789 5.63748,9.61754 1.60953,1.37672 19.13019,11.82507 35.53088,21.18864 l 4.63982,2.64899 0.57211,-4.22759 c 0.31466,-2.32517 0.69107,-7.73147 0.83646,-12.01401 l 0.26436,-7.78643 -4.23153,-2.52338 c -7.6016,-4.53304 -7.80073,-5.76907 -4.30456,-26.71855 1.66917,-10.00187 4.87914,-29.43521 7.13327,-43.18521 6.90826,-42.13991 10.55512,-57.8123 15.93027,-68.46042 4.0506,-8.0242 15.94921,-18.8361 32.41157,-29.4514 9.1339,-5.88975 13.7744,-9.49086 14.09109,-10.93497 0.2597,-1.18427 0.92616,-5.75321 1.48101,-10.15321 0.99734,-7.909 1.06869,-8.05607 6.27256,-12.92955 2.89506,-2.71126 10.56465,-9.34876 17.04354,-14.75 C 349.98092,379.89924 351.43567,379 355.1668,379 h 4.10722 l -0.71508,-9.74161 c -0.3933,-5.35788 -1.14376,-10.25813 -1.66771,-10.88944 -0.52394,-0.63132 -4.65131,-1.66411 -9.17192,-2.29511 -12.41864,-1.73342 -18.87321,-3.11113 -22.50341,-4.80327 -6.19557,-2.88794 -9.13782,-11.06854 -14.1241,-39.27057 -1.1183,-6.325 -3.62144,-17.79272 -5.56254,-25.48382 C 301.46312,270.4051 301.27029,265.80063 304,250 c 1.09271,-6.325 1.98972,-13.11711 1.99337,-15.09358 l 0.007,-3.59359 -8.75,2.4817 c -6.93996,1.96833 -11.23235,2.50468 -20.75,2.59283 -11.32654,0.10491 -12.29925,-0.0464 -17.33208,-2.69655 -11.45346,-6.031 -11.78522,-18.77903 -0.70857,-27.2276 4.06832,-3.10306 18.73899,-9.17549 37.69949,-15.60444 l 12.65884,-4.29224 2.17717,-7.49297 c 8.1271,-27.97026 22.45894,-40.03479 57.00515,-47.98689 18.28702,-4.20944 29.40227,-3.64271 49.93094,2.54581 23.59774,7.11371 33.02185,12.45378 48.60163,27.53961 10.96896,10.62119 16.29628,18.46469 19.57997,28.82791 2.82677,8.9212 2.82405,26.72898 -0.007,45.34946 -1.15808,7.6172 -2.10561,15.85015 -2.10561,18.29545 0,3.40226 -0.58355,5.02955 -2.48574,6.93173 -1.36715,1.36716 -3.64969,5.9592 -5.07231,10.20455 -1.42261,4.24535 -5.50755,13.34381 -9.07763,20.21881 -6.43234,12.38692 -6.48498,12.55428 -5.8186,18.5 0.80604,7.19182 6.03434,28.48006 7.30719,29.75291 0.53542,0.53542 2.35915,-0.37821 4.49059,-2.24965 2.28483,-2.0061 4.41319,-3.03348 5.85702,-2.82723 2.51429,0.35915 2.95748,1.0026 12.96564,18.82397 3.86087,6.875 8.16836,13.71792 9.5722,15.20648 3.08208,3.2681 16.40374,9.23113 45.76164,20.4838 34.46251,13.20923 39.21915,15.14632 47.87857,19.49805 15.72505,7.90252 24.54996,15.4081 32.22673,27.40883 4.85407,7.58812 8.50009,15.6422 24.17513,53.40284 7.19188,17.325 15.60512,37.575 18.69608,45 12.54944,30.14584 16.70582,41.08248 16.15679,42.51321 -0.31744,0.82725 -1.8273,2.04132 -3.35524,2.69792 -1.52793,0.65661 -2.89011,1.25226 -3.02706,1.32368 -0.13695,0.0714 2.27402,6.3928 5.35771,14.04752 9.11102,22.61656 21.06771,55.67593 23.55446,65.12637 1.9363,7.35858 2.31522,11.31734 2.32507,24.2913 0.0114,15.04454 -0.0675,15.6348 -2.6851,20.08739 -5.90738,10.04854 -28.04605,23.28933 -56.3518,33.70314 -21.30497,7.83818 -44.11535,13.7221 -72.35565,18.66406 -7.92238,1.38639 -14.51988,2.63876 -14.66112,2.78306 -0.14125,0.14429 -0.74892,6.33735 -1.35039,13.76235 -3.46115,42.72715 -3.44465,42.64785 -10.34363,49.7079 l -5.08908,5.2079 3.31435,11.7662 c 3.27184,11.6153 7.36904,30.80114 8.3431,39.068 l 0.50077,4.25 H 416.38144 271.9532 Z M 349,726 c 0,-0.55 -0.5625,-0.99712 -1.25,-0.99361 -0.6875,0.004 -15.425,-0.10898 -32.75,-0.25 -27.7591,-0.22594 -31.97069,-0.46875 -35.4634,-2.04453 -5.31999,-2.40018 -7.46968,-4.45102 -9.65587,-9.21186 -1.74106,-3.7915 -1.83795,-8.96668 -1.85877,-99.28212 -0.024,-104.05149 -0.28914,-99.29094 5.81666,-104.42864 6.5796,-5.53636 -0.30197,-5.29292 148.20848,-5.24312 l 137.5471,0.0461 4.9529,2.45389 c 3.79178,1.87861 5.48037,3.49989 7.2029,6.91577 l 2.25,4.4619 V 614 709.57622 l -2.25,4.45382 C 567.71821,722.01088 560.26356,725 544.39176,725 c -5.41855,0 -8.28529,0.36326 -7.89176,1 0.84282,1.3637 21.99029,1.26916 26.9967,-0.1207 5.24649,-1.4565 11.97417,-8.1973 13.37043,-13.39649 0.73183,-2.72511 0.99866,-34.13986 0.84499,-99.48281 -0.24712,-105.07413 0.11026,-99.14326 -6.33896,-105.19695 -6.82266,-6.40424 3.28894,-6.00481 -149.75929,-5.91581 -101.06674,0.0588 -139.95928,0.39178 -142.55047,1.22056 -5.22314,1.67059 -9.77925,5.44194 -12.32263,10.20013 L 264.5,517.5 v 97 97 l 2.22736,4.16579 c 2.46401,4.60838 6.23326,7.69222 11.9796,9.80119 C 283.37759,727.18116 349,727.67876 349,726 Z m 106.89736,-10.58714 c 1.03936,-3.80207 2.23353,-7.99573 2.65371,-9.31923 0.57775,-1.81979 0.45419,-2.21492 -0.50686,-1.62095 -1.88064,1.1623 -4.85244,8.51527 -5.06308,12.52732 -0.43822,8.34658 0.31235,7.93808 2.91623,-1.58714 z m -5.7152,0.69199 c 0.70722,1.00722 0.82562,0.68161 0.42581,-1.17102 -0.33085,-1.53309 0.0802,-3.47135 1.02112,-4.81466 0.8662,-1.23668 1.35552,-2.46789 1.08738,-2.73603 -0.67007,-0.67007 -4.74425,7.90484 -4.60047,9.68258 0.065,0.80346 0.32944,0.60076 0.60128,-0.46087 0.39613,-1.547 0.66523,-1.63886 1.46488,-0.5 z m -1.84824,-7.49173 c 2.14294,-3.27053 7.31506,-6.30188 12.88033,-7.54908 6.03073,-1.35152 16.70577,0.49052 34.28575,5.91621 l 13,4.01217 23.11514,0.004 c 21.87386,0.004 23.25663,-0.10751 25.75,-2.06879 L 560,706.85484 V 613.5 520.14516 L 557.36514,518.07258 554.73028,516 H 421 287.26972 l -2.63486,2.07258 L 282,520.14516 V 613.5 706.85484 l 2.63486,2.07258 C 287.25045,710.98484 287.85298,711 367.01985,711 h 79.75013 z M 591.94636,669.74281 C 595.35952,666.95442 604,655.76526 604,654.13373 c 0,-0.66302 -2.76356,-5.57685 -6.14125,-10.91962 -6.97476,-11.03255 -6.72894,-10.68866 -7.24175,-10.13078 -0.52158,0.56743 -4.63172,33.70221 -4.62354,37.27366 0.007,3.26639 1.37566,3.12523 5.9529,-0.61418 z"
         id="path5" />
      <path
         style="fill:#606060;fill-opacity:1"
         d="m 272.55898,875.25 c 0.3533,-4.2625 1.48793,-14.45558 2.52139,-22.65128 l 1.87901,-14.90128 -3.42318,-3.78905 c -1.88275,-2.08399 -3.67034,-5.27841 -3.97242,-7.09873 C 268.25837,818.94337 267,791.11523 267,770.11332 v -22.72758 l -6.67447,-4.90074 c -9.45287,-6.94078 -33.27102,-30.39957 -59.74136,-58.83997 l -22.69983,-24.38929 -7.69217,-1.22962 c -13.00214,-2.07845 -29.44462,-6.61997 -36.06267,-9.96075 -3.46557,-1.74941 -11.43287,-5.35556 -17.70511,-8.01366 -6.27224,-2.6581 -15.57114,-7.52609 -20.664228,-10.81775 C 90.667073,625.94229 82.45,621.0118 77.5,618.2773 c -7.597276,-4.19691 -9.170921,-5.50215 -10.096646,-8.37455 -0.926016,-2.87331 -2.226773,-3.95149 -8.360047,-6.92954 -3.994871,-1.93974 -8.11388,-4.57709 -9.153354,-5.86079 -2.191477,-2.70635 -2.461824,-8.77547 -0.505665,-11.35181 4.076352,-5.36872 21.619729,-7.06233 44.115712,-4.25887 17.70591,2.20653 33.67149,2.45371 38.93827,0.60287 l 3.93826,-1.38398 -2.55664,-2.19914 c -1.40616,-1.20952 -8.35338,-4.53248 -15.43827,-7.38436 -24.656599,-9.925 -33.918146,-20.90913 -25.538107,-30.28802 4.137959,-4.63118 9.030617,-4.38212 21.178017,1.07808 19.65446,8.83458 28.14433,12.17002 41.69947,16.38262 18.28001,5.68097 25.64351,9.85857 36.30931,20.59966 8.21163,8.26961 10.42428,11.66788 15.89863,24.41781 1.63021,3.7968 3.17808,4.99159 17.18134,13.26215 8.46435,4.99918 17.95321,10.53097 21.08637,12.29286 l 5.69664,3.20344 0.50558,-3.29287 c 0.27807,-1.81107 0.70138,-7.21598 0.9407,-12.0109 l 0.43512,-8.71805 -4.72763,-3.03371 c -7.37882,-4.73498 -7.47843,-5.36267 -4.09545,-25.80664 1.61305,-9.74796 4.11526,-25.14856 5.56048,-34.22356 7.1521,-44.91047 11.53738,-64.70505 16.94779,-76.5 4.19469,-9.14461 12.90932,-17.38829 31.29014,-29.59915 7.56249,-5.02396 14.25446,-9.76358 14.87105,-10.53247 0.61659,-0.7689 1.63501,-5.55383 2.26315,-10.63319 1.31324,-10.61923 -0.15599,-8.79459 22.37566,-27.78857 11.7428,-9.89907 14.88686,-11.66452 18.90286,-10.61431 2.10148,0.54955 2.12158,0.41873 1.46801,-9.55432 -0.36445,-5.56132 -1.13137,-10.67628 -1.70427,-11.36657 -0.57289,-0.69029 -2.92821,-1.54368 -5.23405,-1.89642 -24.12296,-3.69022 -26.31877,-4.31834 -30.40863,-8.69846 -3.24645,-3.47685 -4.85891,-8.89049 -8.83648,-29.6674 -1.96362,-10.25703 -5.11757,-24.90806 -7.00877,-32.55785 -3.99456,-16.15775 -4.12982,-19.39881 -1.4489,-34.72036 1.0943,-6.25401 1.9943,-13.23618 2,-15.51593 l 0.0104,-4.14501 -9.25,2.41667 c -12.85713,3.35908 -24.733,4.10161 -31.96672,1.99871 -16.64801,-4.8397 -19.29231,-19.9869 -5.18377,-29.69384 5.41886,-3.72827 41.94168,-17.72367 43.13586,-16.52949 0.21531,0.21531 -3.34956,1.63764 -7.92195,3.16074 -4.57238,1.5231 -7.74812,2.95799 -7.05719,3.18865 0.69093,0.23067 1.0406,0.76828 0.77706,1.19471 -0.26355,0.42643 3.22115,1.00829 7.74377,1.29303 14.18698,0.8932 23.12844,4.00233 48.22294,16.76809 12.65,6.43516 25.925,12.71737 29.5,13.96048 9.54631,3.31948 21.52377,3.80122 31.53209,1.26825 9.77434,-2.47375 22.66792,-8.10336 21.79481,-9.51607 -0.36154,-0.58498 -0.14801,-0.7274 0.49488,-0.33007 0.62194,0.38438 2.34173,0.0644 3.82176,-0.71106 l 2.69096,-1.40994 -5.91725,-2.25645 c -12.17745,-4.64368 -77.69866,-25.94177 -85.15934,-27.68159 -5.40114,-1.25954 -11.78292,-1.81243 -21.00727,-1.81997 -7.28714,-0.006 -13.24964,-0.26393 -13.25,-0.57325 -0.002,-1.87381 6.23801,-18.48151 8.99074,-23.92819 3.95621,-7.82795 12.53967,-16.4272 20.68984,-20.7279 13.84958,-7.30818 35.0121,-12.58165 50.31878,-12.53889 12.15831,0.034 27.04473,3.4745 44.34043,10.2479 13.55861,5.30988 22.05826,11.16707 34.6796,23.89806 16.16925,16.30973 19.98504,25.20691 19.97342,46.57153 -0.004,6.86312 -0.86367,17.7757 -2,25.37995 C 484.89705,242.17708 484,249.96193 484,252.13971 484,256.23566 481.66291,262 480.00225,262 c -0.52051,0 -1.67643,2.5875 -2.56871,5.75 -0.89228,3.1625 -4.99738,12.47989 -9.12244,20.70531 l -7.50012,14.95531 0.68896,6.54469 c 0.64237,6.10212 5.81943,28.13439 7.09643,30.20062 0.31442,0.50874 2.33516,-0.66822 4.49053,-2.61547 2.15537,-1.94726 4.39715,-3.54046 4.98172,-3.54046 2.69302,0 5.18559,2.56341 8.05863,8.28765 5.51869,10.9954 14.07652,24.70602 16.908,27.08856 3.74034,3.14728 18.19047,9.34367 51.46475,22.06868 44.52958,17.02935 57.62234,24.24721 68.51978,37.77403 7.3142,9.079 13.79871,23.26899 41.94191,91.78108 3.7278,9.075 10.23595,24.92127 14.46256,35.21393 6.35902,15.48554 7.49675,19.06517 6.59506,20.75 -0.59932,1.11984 -1.63634,2.04296 -2.30449,2.05138 -3.9941,0.0503 -3.85402,1.60991 1.30955,14.57894 6.47258,16.25681 17.28629,45.26944 21.02542,56.41013 5.64928,16.83197 7.64744,38.91741 4.48461,49.56783 -2.66877,8.98672 -14.55216,18.29535 -36.93594,28.93307 C 647.72604,740.80095 614.764,750.54101 579,756.4585 c -5.225,0.86452 -10.46802,1.78744 -11.65114,2.05092 -2.44518,0.54454 -2.25039,-0.72655 -4.9024,31.99058 -0.89164,11 -2.25801,21.81804 -3.03636,24.0401 -0.77836,2.22205 -3.59055,6.18275 -6.24932,8.80154 l -4.83414,4.76144 3.31455,10.93279 c 3.79246,12.50911 7.19471,28.40101 8.05685,37.63342 L 560.28921,883 H 416.1029 271.9166 Z M 374,741.09055 c -0.825,-0.46674 -2.625,-1.1236 -4,-1.45967 -2.08385,-0.50933 -2.00062,-0.37052 0.5,0.83393 3.20473,1.54359 6.00831,2.04483 3.5,0.62574 z m -34.66667,-14.07954 c 7.41798,-0.008 9.73122,-0.31805 9.4176,-1.26101 -0.31729,-0.95404 -8.46419,-1.36838 -34.40872,-1.75 l -33.993,-0.5 -4.14672,-2.74573 c -8.28707,-5.48726 -7.66497,2.61702 -8.00277,-104.25427 -0.20308,-64.24871 0.0396,-96.17004 0.74958,-98.6146 1.47278,-5.07074 4.70976,-8.82612 9.4721,-10.98907 3.9069,-1.77442 9.93185,-1.85333 143.11671,-1.87437 L 560.57622,505 l 4.43901,2.25 c 2.62884,1.33248 5.26392,3.67726 6.46189,5.75 1.98651,3.43708 2.02773,5.2136 2.29257,98.82004 0.17736,62.69001 -0.0805,96.62065 -0.7534,99.11945 -0.56269,2.08968 -1.96128,4.99215 -3.10798,6.44994 -3.80662,4.83934 -7.41679,5.97737 -20.82836,6.56572 -8.30623,0.36438 -12.55061,0.93988 -12.81421,1.73749 -0.61172,1.85091 6.0234,2.65547 16.13296,1.95624 12.67447,-0.87663 18.88694,-4.02451 22.82691,-11.56647 l 2.82217,-5.40226 -0.27389,-96.61749 -0.27389,-96.6175 -2.55796,-4.96986 c -2.10957,-4.09871 -3.58711,-5.49622 -8.42914,-7.97259 L 560.64171,501.5 H 421.57086 c -132.33295,0 -139.30048,0.0886 -143.81027,1.82866 -5.83714,2.25222 -11.15424,8.20622 -12.65661,14.17268 C 264.33765,520.54472 264,550.59788 264,615.76351 v 93.87786 l 2.75,5.42445 c 2.06367,4.07065 3.97719,6.17438 7.66714,8.42931 l 4.91714,3.00487 21.58286,0.58853 c 11.87057,0.32369 23.15786,0.44115 25.08286,0.26101 1.925,-0.18014 7.925,-0.33248 13.33333,-0.33853 z m 116.79226,-10.02155 c 0.89408,-3.5692 2.13158,-7.75625 2.75,-9.30456 1.63781,-4.10047 1.41793,-4.90869 -1.12559,-4.13735 -4.94219,1.49874 -9.75,8.25325 -9.75,13.69783 0,3.13315 2.81378,6.93641 4.84522,6.54907 1.11833,-0.21324 2.18177,-2.41929 3.28037,-6.80499 z m -7.79339,-8.3737 c 0.85922,-1.31134 3.92433,-3.56134 6.81135,-5 8.74217,-4.35641 17.41379,-3.46707 42.90979,4.4007 9.56787,2.95253 9.91261,2.98354 33.17264,2.98354 22.26447,0 23.64329,-0.10933 26.13916,-2.07258 L 560,706.85484 V 613.5 520.14516 L 557.36514,518.07258 554.73028,516 H 420.67959 286.6289 l -2.31445,2.17431 -2.31445,2.17432 0.0153,93.07568 c 0.008,51.19163 0.34592,93.56415 0.75,94.16115 2.20379,3.25598 4.6397,3.35369 84.36968,3.38413 l 79.635,0.0304 z m 151.54658,-47.54893 5.17466,-6.80661 -6.46612,-10.1983 c -3.55636,-5.60906 -6.65678,-10.73011 -6.88981,-11.38011 -0.23304,-0.65 -0.66929,-0.95681 -0.96945,-0.68181 -0.75246,0.68939 -5.59092,40.31591 -5.03836,41.26368 0.89276,1.53127 9.14568,-5.56288 14.18908,-12.19685 z M 335.13112,450.65799 c -0.61257,-0.7381 -0.85721,-1.59856 -0.54365,-1.91213 0.82423,-0.82422 -2.77734,-11.74655 -3.6878,-11.18386 -0.41992,0.25953 -0.13433,1.68458 0.63465,3.16679 0.98468,1.89797 1.07452,2.89493 0.30379,3.37126 -0.62141,0.38406 -0.74861,1.26486 -0.29433,2.03815 0.44,0.74899 -0.28984,0.47323 -1.62189,-0.6128 -1.33204,-1.08603 -0.64306,-0.0735 1.53106,2.25 3.68858,3.94207 6.17404,5.88992 3.67817,2.88259 z m 109.45806,-4.28618 c -0.27601,-0.71927 -0.002,-1.6167 0.609,-1.99429 0.71945,-0.44465 0.82579,-0.22532 0.30182,0.62248 -0.50977,0.82482 -0.4167,1.06655 0.25161,0.65351 0.58335,-0.36052 0.80554,-1.63096 0.49377,-2.82318 -0.44458,-1.70008 -0.21799,-2.0338 1.05043,-1.54706 1.52535,0.58533 9.63489,-9.16297 22.70419,-27.29221 6.67223,-9.25545 28.32498,-37.50437 30.84978,-40.24765 2.03394,-2.20996 2.2877,-3.00316 1.27965,-4 -1.45949,-1.44327 -2.9996,0.10628 -15.62943,15.72525 -4.4,5.44137 -11.6,14.25234 -16,19.57995 -4.4,5.32762 -12.275,14.91485 -17.5,21.30497 -5.225,6.39012 -9.87788,11.6247 -10.33974,11.63241 -0.46186,0.008 -3.37119,-2.24223 -6.46518,-4.99986 -5.10622,-4.5511 -16.20573,-11.78446 -20.34643,-13.25942 -4.0552,-1.44451 -0.30949,3.34758 12.7237,16.27812 10.65883,10.57487 14.23171,13.56644 15.22316,12.74634 0.71253,-0.58938 1.06968,-1.66009 0.79367,-2.37936 z m -20.6475,-225.26283 c 0.54337,-1.01531 0.70379,-2.13018 0.35647,-2.4775 C 423.95083,218.28417 424.1637,218 424.77118,218 c 1.53683,0 1.10164,3.83483 -0.50516,4.45141 -0.99222,0.38076 -1.07133,0.0533 -0.32434,-1.34243 z"
         id="path4" />
      <path
         style="fill:#494949;fill-opacity:1"
         d="m 272.39747,878.75 c 0.28601,-2.3375 0.77807,-7.175 1.09347,-10.75 0.3154,-3.575 1.2639,-12.01636 2.10778,-18.75859 l 1.53432,-12.25858 -3.04763,-2.56442 c -1.69567,-1.42681 -3.46702,-4.19557 -3.99302,-6.24141 -1.43651,-5.58718 -3.09824,-38.22395 -3.09514,-60.7895 l 0.003,-20.11251 -6.75,-5.02932 c -10.34792,-7.71008 -29.4675,-26.48069 -57.2369,-56.19222 -22.27177,-23.82942 -25.66784,-27.07404 -28.87663,-27.58886 -19.92983,-3.19753 -32.33028,-6.54033 -41.63647,-11.22399 -3.85,-1.93764 -11.63695,-5.46684 -17.30434,-7.84267 -5.66739,-2.37583 -14.80977,-7.27168 -20.316401,-10.87968 C 89.372627,624.91026 81.859581,620.4382 78.183601,618.58033 71.056385,614.97819 67.416742,611.74107 66.84983,608.5 66.612542,607.14341 64.125575,605.35718 59.119223,602.94761 50.434418,598.76758 48,596.16571 48,591.06353 c 0,-4.10283 2.493223,-7.16996 7.312706,-8.99601 6.01144,-2.27766 21.652981,-2.34502 40.915041,-0.17619 C 106.52801,583.0511 116.96836,584 119.42853,584 c 5.17301,0 14.65033,-1.8187 15.98155,-3.06686 1.53929,-1.44325 -3.40364,-4.57939 -13.41008,-8.50828 -14.2819,-5.60759 -20.22448,-8.83995 -25.975167,-14.12871 -4.542621,-4.17773 -5.283337,-5.40246 -5.744614,-9.4984 -0.478735,-4.25095 -0.237046,-4.99477 2.518187,-7.75 C 95.291914,538.55424 96.664079,538 100.3439,538 c 4.51178,0 7.72303,1.20334 30.42662,11.40162 5.64878,2.53739 16.22378,6.40547 23.5,8.59573 27.14061,8.16979 41.0967,19.05266 50.99144,39.76282 l 4.90203,10.26016 11.668,6.86173 c 18.94016,11.13835 30.21431,17.4085 30.56743,17.00017 0.1818,-0.21022 0.57642,-5.61122 0.87693,-12.0022 l 0.54638,-11.61998 -4.34344,-3.06154 c -8.23025,-5.80121 -8.11797,-3.43408 -1.95528,-41.22346 10.42158,-63.90473 13.69382,-79.89979 19.20059,-93.85428 3.72367,-9.436 13.90696,-19.27525 32.97858,-31.8644 16.48423,-10.88121 14.9671,-8.73659 16.77354,-23.71104 0.82039,-6.80067 0.66005,-6.61736 20.52328,-23.46315 13.30677,-11.28533 14.96312,-12.30717 19.27376,-11.89039 3.13748,0.30335 3.1839,0.24518 2.94597,-3.69179 -0.63776,-10.55304 -1.49581,-17.55259 -2.20549,-17.9912 -0.43009,-0.26581 -5.67174,-1.18793 -11.64811,-2.04916 -26.67495,-3.84402 -26.68104,-3.85173 -33.8804,-42.95964 -1.41748,-7.7 -3.92198,-19.175 -5.56555,-25.5 -4.23094,-16.28213 -4.52638,-21.37585 -2.02801,-34.96456 1.15931,-6.3055 2.10783,-13.66615 2.10783,-16.35698 0,-4.25131 -0.22933,-4.80351 -1.75,-4.21383 -11.39458,4.41854 -33.75357,6.38588 -41.58577,3.65908 -8.76182,-3.05044 -13.52053,-10.43856 -11.48107,-17.82488 1.66553,-6.03207 5.48923,-10.02766 13.28193,-13.87903 11.56259,-5.71454 27.32133,-6.71339 44.53491,-2.82279 10.16873,2.29833 16.0494,4.79152 37.5,15.89865 25.63619,13.27442 32.85234,15.77263 45.5,15.75198 7.93363,-0.0129 11.06637,-0.53251 19,-3.15109 10.03532,-3.31226 22.14695,-9.03741 22.71334,-10.73656 0.54818,-1.64456 -77.02399,-27.6215 -92.37439,-30.93381 -5.06669,-1.0933 -12.14917,-1.67301 -20.02671,-1.63924 -8.8617,0.038 -12.08966,-0.26692 -11.82826,-1.11734 7.3215,-23.81937 13.0421,-32.9433 25.69932,-40.98852 17.16431,-10.91003 47.7446,-17.1465 67.15946,-13.69634 9.7862,1.73908 30.65739,8.50345 39.15724,12.69091 9.14505,4.50531 19.45995,12.46681 28.74979,22.19037 8.72462,9.13196 14.05088,18.06364 16.19375,27.15554 1.95258,8.28457 1.95096,24.34366 -0.004,38.47844 -0.83672,6.05 -1.75135,13.475 -2.03251,16.5 -0.92438,9.94537 -1.51235,12.19201 -3.75778,14.35863 -1.22059,1.17775 -3.0471,4.84137 -4.0589,8.14137 -1.01181,3.3 -4.93358,12.1815 -8.71505,19.73667 -5.14808,10.28557 -6.89132,14.80776 -6.93879,18 -0.0496,3.33529 -0.24713,3.80902 -0.9075,2.17627 -0.71277,-1.76233 -10.73841,-7.2164 -11.45656,-6.23251 -0.12829,0.17576 -3.29706,5.71957 -7.0417,12.31957 -22.89297,40.34928 -49.7465,71.48331 -71.52717,82.92873 l -6.66317,3.50139 -2.78452,12.78494 c -1.68285,7.72672 -2.96735,17.13697 -3.24665,23.78494 l -0.46215,11 2.00834,-3.16225 c 1.10459,-1.73923 6.57246,-11.41423 12.15082,-21.5 C 381.6883,405.52463 382.8462,404.12134 395,395.75921 c 24.52609,-16.87459 63.01021,-45.61226 77.68316,-58.00921 2.44116,-2.0625 4.89069,-3.75 5.4434,-3.75 2.79901,0 5.17078,2.88903 10.24961,12.48493 3.06122,5.78384 7.06347,12.8602 8.89391,15.72524 l 3.32806,5.20917 -15.54907,19.12617 c -8.55199,10.51939 -21.5426,26.41327 -28.86803,35.31974 l -13.31895,16.19358 -3.94449,-3.27942 c -9.83053,-8.17301 -13.72851,-10.84778 -22.27569,-15.28542 l -9.14191,-4.74642 17.49196,17.62889 c 9.62058,9.6959 17.80069,17.51519 18.17802,17.37622 0.37734,-0.13897 8.49532,-10.60268 18.03996,-23.25268 15.29194,-20.26719 36.27236,-47.82773 40.89935,-53.72669 l 1.60929,-2.05168 5.39071,2.54527 c 8.49699,4.01193 20.90866,9.02178 49.15696,19.84173 51.03,19.54602 61.14615,26.53624 73.64937,50.89137 4.48714,8.74054 14.9268,33.16173 32.06128,75 3.71658,9.075 10.40464,25.38342 14.86236,36.24092 4.45771,10.85751 7.87454,20.34133 7.59294,21.07516 -0.77537,2.02058 -6.60006,4.16495 -20.84523,7.67418 -14.36222,3.53807 -25.39756,7.22685 -39.58697,13.23272 -19.26718,8.15512 -41,19.97005 -41,22.28944 0,0.70647 1.26,3.69268 2.79999,6.63603 2.24506,4.29091 2.65556,6.04522 2.07124,8.85155 -0.40081,1.925 -1.68679,11.6 -2.85773,21.5 -2.07909,17.57826 -2.19812,18.05858 -5.08025,20.5 -2.69395,2.28202 -2.97091,3.11035 -3.17641,9.5 -0.12382,3.85 -0.45727,-32.825 -0.74099,-81.5 L 577.5,516.5 l -2.26975,-4.24888 c -2.85861,-5.35119 -8.2398,-8.95107 -15.3432,-10.2642 -3.63767,-0.67246 -52.17841,-0.93042 -141.95745,-0.7544 -135.85862,0.26636 -136.44843,0.2762 -140.9296,2.35069 -5.50593,2.54888 -10.53607,8.0844 -11.93987,13.13946 -1.45282,5.23155 -1.45282,190.32311 0,195.55466 1.46329,5.26927 5.99784,10.05091 12.18259,12.84639 5.19359,2.34749 5.65707,2.37628 38.25728,2.37628 28.66667,0 33,-0.19697 33,-1.5 0,-1.29353 -4.61111,-1.56882 -33.5,-2 -33.3334,-0.49751 -33.52138,-0.51224 -37.79941,-2.96191 -2.36467,-1.35405 -5.28967,-4.05405 -6.5,-6 L 268.5,711.5 268.21557,616 c -0.25657,-86.14323 -0.12535,-95.91809 1.33928,-99.7672 1.85301,-4.86982 6.13736,-8.52132 11.94515,-10.1807 2.93601,-0.83887 40.70753,-1.06429 142,-0.84748 132.10621,0.28276 138.15948,0.37467 141.73424,2.15184 2.05383,1.02106 4.75383,3.49606 6,5.5 L 573.5,516.5 l 0.30435,93 c 0.1674,51.15 0.0254,95.33979 -0.31565,98.19954 -0.76586,6.42273 -3.75474,10.98267 -8.9887,13.71347 -3.27953,1.71109 -6.20643,2.14671 -16.25,2.41855 -9.38426,0.25399 -12.25,0.64389 -12.25,1.66666 0,0.73431 0.5625,1.56209 1.25,1.8395 0.6875,0.27741 -0.12831,0.53991 -1.81291,0.58333 -2.18222,0.0562 -3.90742,-0.80657 -6,-3.00076 -3.53362,-3.70521 -14.76505,-11.24239 -18.93709,-12.7083 -2.26479,-0.79577 2.94296,-1.07344 21.25,-1.13304 22.85951,-0.0744 24.36468,-0.19363 26.25,-2.07895 1.46461,-1.46461 2.02065,-3.4054 2.07713,-7.25 0.11971,-8.14831 0.1248,-37.28294 0.0197,-112.5 -0.0948,-67.85018 -0.13723,-69.29043 -2.0968,-71.25 -1.98022,-1.98022 -3.33333,-2 -136.82569,-2 H 286.34863 l -2.17432,2.31445 L 282,520.6289 v 93.18555 c 0,91.85222 0.0286,93.21417 2,95.18555 1.96686,1.96686 3.33333,2 82.47695,2 h 80.47694 l 1.48021,-2.25908 c 0.81412,-1.2425 2.96199,-3.0902 4.77306,-4.10601 l 3.29284,-1.84692 -2.64964,2.35601 c -6.74431,5.99688 -7.98701,13.00034 -3.20036,18.03618 4.02319,4.23264 6.24288,5.19635 20.35,8.8353 6.875,1.77342 15.65,4.74117 19.5,6.59501 l 7,3.37061 -13.5,-0.53688 c -17.76912,-0.70666 -25.96184,-2.28358 -51.32028,-9.87806 -37.1905,-11.13801 -52.83845,-14.15978 -64.87011,-12.52705 -6.62148,0.89855 -9.24548,2.17029 -11.46392,5.55605 -2.45908,3.75304 -0.6988,4.88996 13.69982,8.84835 13.66404,3.75644 46.26886,14.67028 68.95449,23.08119 7.975,2.95681 16.63638,5.9015 19.24751,6.54375 8.10438,1.9934 72.73304,0.6092 91.25249,-1.95442 8.25,-1.14204 15.12503,-2.0849 15.27785,-2.09523 0.15282,-0.0103 0.0217,2.7937 -0.29146,6.2312 -0.31311,3.4375 -1.43573,15.84774 -2.49469,27.57831 -2.11398,23.41745 -2.38381,24.28443 -9.80514,31.50396 l -3.93938,3.83226 2.82242,9.40073 c 3.75876,12.5194 7.69062,30.35513 8.52801,38.68474 l 0.67858,6.75 H 416.07682 271.87745 Z M 437.91667,765.61419 C 436.79986,764.58008 397.48434,748.27298 387,744.49523 c -9.73807,-3.50886 -24.10248,-7.72608 -24.60487,-7.22369 -0.2432,0.2432 5.3059,2.79723 12.33134,5.67563 7.02544,2.87839 20.71752,8.80884 30.42683,13.17877 9.70932,4.36994 19.60932,8.32999 22,8.80013 4.58629,0.90191 11.46951,1.34197 10.76337,0.68812 z M 194.96462,638.53201 c 2.4984,-2.26101 2.61252,-5.6208 0.28538,-8.40157 -1.58309,-1.89168 -3.12063,-2.14106 -16.12096,-2.61475 -22.59421,-0.82325 -30.44274,-3.57816 -46.2249,-16.22539 -11.4468,-9.17304 -14.27223,-10.46296 -33.733724,-15.40081 -18.00841,-4.56917 -24.304708,-4.96355 -26.613712,-1.66698 C 71.700517,595.44488 71,597.23451 71,598.19945 c 0,2.41298 4.461237,5.15259 7.250562,4.45251 5.020822,-1.26015 14.770895,1.22472 27.240118,6.94232 10.15269,4.65538 14.47122,7.34565 22.60921,14.08465 11.46164,9.49129 16.49308,12.64695 22.90011,14.36266 6.95466,1.86235 18.39998,2.81768 30.71462,2.5637 9.27759,-0.19134 11.56619,-0.54944 13.25,-2.07328 z M 334.13802,442.91084 C 330.39318,431.764 327.48162,425 326.42832,425 c -0.77045,0 -5.40719,10.25725 -5.41855,11.98675 -0.008,1.26822 16.0504,18.12637 16.73105,17.56393 0.13245,-0.10944 -1.4888,-5.34737 -3.6028,-11.63984 z M 451.72059,285.45195 c 9.5259,-4.74696 16.25996,-14.15209 18.83646,-26.30797 2.59801,-12.25739 1.38158,-21.82763 -3.15199,-24.79814 -3.73264,-2.44572 -9.69534,-0.32971 -15.54967,5.51817 -4.96765,4.96218 -5.26595,5.72292 -9.46415,24.13599 -3.57272,15.66972 -3.97229,20.27609 -1.9355,22.31288 2.33908,2.33908 5.29689,2.11302 11.26485,-0.86093 z m 90.54844,442.85506 c 0.97297,-0.25354 2.32297,-0.23687 3,0.0371 0.67703,0.27393 -0.11903,0.48137 -1.76903,0.46099 -1.65,-0.0204 -2.20394,-0.2445 -1.23097,-0.49804 z M 578.15789,707 c 0,-1.375 0.22698,-1.9375 0.50439,-1.25 0.27741,0.6875 0.27741,1.8125 0,2.5 -0.27741,0.6875 -0.50439,0.125 -0.50439,-1.25 z m 20.81576,-44.68093 c 3.42636,-4.49952 5.94034,-8.64922 5.58661,-9.22157 -0.82886,-1.34113 10.3438,-9.63909 17.34562,-12.88262 3.45286,-1.5995 7.7882,-2.65136 12,-2.91148 6.90017,-0.42616 16.40512,1.47105 16.01489,3.1966 -0.12439,0.55 -4.31994,2.44596 -9.32346,4.21324 -13.89606,4.90819 -39.19593,18.07614 -45.47536,23.66879 -1.30794,1.16489 0.42533,-1.56345 3.8517,-6.06296 z m 109.5173,2.04893 c -0.33351,-1.5774 -1.05067,-4.83524 -1.59369,-7.23964 -0.54302,-2.4044 -0.78534,-4.57362 -0.53847,-4.82048 0.24686,-0.24686 1.18541,2.78959 2.08565,6.74768 0.90025,3.95808 1.41544,7.4179 1.14486,7.68848 -0.27058,0.27058 -0.76484,-0.79864 -1.09835,-2.37604 z"
         id="path3" />
      <path
         style="fill:#333333;fill-opacity:1"
         d="m 273.3085,872.97736 c 0.31907,-5.23745 1.35524,-15.44085 2.30259,-22.67422 l 1.72247,-13.15159 -3.10324,-2.6112 c -2.31529,-1.94819 -3.35907,-3.93523 -4.11083,-7.82578 C 268.58176,818.7564 267,788.27239 267,766.59511 v -19.41255 l -6.50876,-5.11503 c -12.18988,-9.57966 -26.04692,-22.92062 -47.52978,-45.75963 -11.79947,-12.54434 -24.62063,-26.10507 -28.49147,-30.13494 l -7.03787,-7.32703 -8.46606,-1.45881 c -14.3731,-2.47667 -27.68056,-6.21831 -34.7258,-9.76381 -3.70714,-1.86561 -11.72088,-5.48046 -17.8083,-8.03299 -6.08742,-2.55253 -15.25008,-7.34547 -20.36145,-10.65096 -5.111374,-3.30549 -12.730756,-7.86579 -16.931959,-10.134 C 69.896961,613.81588 67,611.34919 67,608.46967 c 0,-1.74692 -1.680552,-2.99563 -8.432792,-6.26585 -4.638036,-2.24628 -8.913036,-4.98149 -9.5,-6.07824 -3.389482,-6.33331 1.074191,-13.4244 9.219187,-14.64582 6.166921,-0.92479 33.042005,-0.0599 49.468295,1.59194 10.24375,1.03013 14.7604,1.075 19.88309,0.19752 12.52098,-2.14475 11.3097,-4.02093 -7.68238,-11.89942 -14.25031,-5.91146 -22.344843,-10.66705 -26.439669,-15.53347 -4.51647,-5.36752 -4.523855,-10.91911 -0.02052,-15.42245 3.554397,-3.5544 9.169539,-3.2072 19.004789,1.17512 22.21655,9.89907 30.0496,12.99955 41.70478,16.50756 14.24566,4.2877 20.47976,7.14655 29.44919,13.50493 9.38805,6.65513 15.84432,14.51779 21.39797,26.05914 4.84024,10.05879 4.96221,10.20555 12.16865,14.64154 C 228.29361,619.11826 250.96207,632 251.88357,632 c 1.21027,0 2.41345,-24.40099 1.22275,-24.79789 -2.49393,-0.83131 -9.27908,-6.4949 -9.94825,-8.30385 -0.82852,-2.2397 9.61522,-68.54669 15.26204,-96.89826 7.56973,-38.00606 11.19386,-43.54473 41.60392,-63.58219 l 14.75926,-9.72501 1.23034,-9.5964 c 1.46399,-11.41885 1.07977,-10.90909 20.8938,-27.72064 C 349.96646,380.2956 350.44036,380 355.14467,380 h 4.82982 l -0.54058,-7.75 C 358.3399,356.56576 358.55599,356.88117 348,355.56029 c -13.1159,-1.64121 -22.27063,-3.91713 -25.00238,-6.21575 -4.58331,-3.8566 -6.16592,-9.06125 -11.50759,-37.84454 -1.32692,-7.15 -3.83875,-18.4 -5.58185,-25 -3.70578,-14.03135 -4.08312,-22.41811 -1.64225,-36.5 1.65441,-9.54459 2.7449,-19 2.19128,-19 -0.16341,0 -5.17063,1.19109 -11.12716,2.64687 -15.07354,3.68399 -26.66837,3.7183 -34.56677,0.10229 -6.60382,-3.02332 -9.75382,-7.23498 -9.75954,-13.04882 -0.005,-4.9996 2.01663,-8.70596 7.14069,-13.09197 6.37674,-5.45826 13.47963,-7.68981 26.5514,-8.34181 21.13943,-1.05441 30.91533,1.73272 61.67868,17.58469 C 373.58459,230.87227 378.3304,232.5 392,232.5 c 8.85895,0 11.86761,-0.44828 19.25045,-2.86825 9.4739,-3.10538 22.88264,-9.53101 23.45176,-11.23837 0.54613,-1.63839 -77.71575,-28.05323 -93.29682,-31.48942 -3.24796,-0.71629 -11.81289,-1.32521 -19.03317,-1.35316 l -13.12778,-0.0508 3.46635,-10 c 4.77519,-13.77582 7.65675,-18.67905 15.0319,-25.57814 7.30416,-6.83269 14.44839,-10.71713 27.4787,-14.94065 25.61468,-8.30251 41.61711,-8.03656 69.14663,1.14917 20.07397,6.69805 29.42608,12.51326 44.70181,27.79591 10.27801,10.28268 15.97781,20.51044 17.95917,32.22609 1.30826,7.73564 0.77899,27.31414 -0.99065,36.64539 -0.51581,2.71989 -1.40699,9.61557 -1.9804,15.32374 -0.87953,8.75562 -1.39558,10.69135 -3.30025,12.37925 -1.26225,1.11859 -3.30645,5.30726 -4.63628,9.5 -1.30822,4.12458 -5.24572,13.01771 -8.75,19.7625 -3.50428,6.74479 -6.37142,13.38229 -6.37142,14.75 0,1.36771 -0.17062,2.48674 -0.37916,2.48674 -0.20853,0 -2.93735,-1.17118 -6.06404,-2.60263 -3.12668,-1.43144 -5.80349,-2.44394 -5.94846,-2.25 -0.14496,0.19395 -2.42613,4.17763 -5.06924,8.85263 -25.95573,45.90904 -51.92913,76.05442 -76.0391,88.25289 l -5,2.52975 -2.87504,14.83913 c -2.9787,15.37419 -4.3976,29.92239 -3.21812,32.99606 0.60173,1.56808 0.82419,1.49117 1.9491,-0.67386 0.69841,-1.34418 6.37239,-11.58236 12.60885,-22.75149 12.42185,-22.24682 11.80347,-21.54091 29.53521,-33.71556 5.5,-3.77631 13.15,-9.17274 17,-11.99207 3.85,-2.81932 12.175,-8.90671 18.5,-13.52751 14.66585,-10.71432 33.78772,-25.89536 36.92431,-29.31458 1.68502,-1.83685 3.4341,-2.64276 5.73561,-2.64276 3.049,0 3.55455,0.4819 6.38235,6.08373 1.68908,3.34605 5.7526,10.59979 9.03005,16.11941 l 5.959,10.03568 -14.18151,17.63059 c -18.45725,22.94623 -35.41779,43.53885 -39.99971,48.5656 l -3.64991,4.00424 -4.35009,-3.99267 c -2.39256,-2.19598 -5.9251,-5.17539 -7.8501,-6.62092 -4.21117,-3.16227 -22.93019,-13.2288 -23.51392,-12.64508 -0.22706,0.22707 7.8792,8.69581 18.01392,18.81942 10.13472,10.12361 18.59975,18.20259 18.81117,17.95328 0.21142,-0.2493 8.68761,-11.47828 18.83598,-24.95328 24.78562,-32.91035 34.5151,-45.69354 38.54626,-50.64444 l 3.37452,-4.14445 10.76172,4.75729 c 5.91895,2.6165 18.61616,7.7773 28.21604,11.46844 34.93101,13.43092 38.49976,14.84267 47.20753,18.67459 19.7357,8.68485 30.92146,18.43714 40.05741,34.92401 3.70359,6.68353 14.78531,32.59446 34.19967,79.96456 3.49392,8.525 9.75843,23.72098 13.92114,33.76885 4.16271,10.04787 7.56856,19.10527 7.56856,20.12756 0,2.96692 -1.78633,3.78858 -15.52493,7.141 -14.30993,3.49184 -29.45992,8.37332 -42.47507,13.68591 -9.70684,3.96219 -38.25434,18.41258 -41.99475,21.25722 l -2.49475,1.8973 3.22427,6.53848 c 2.11779,4.29466 3.06858,7.48996 2.77059,9.31108 -0.24952,1.52493 -1.41335,10.8726 -2.58629,20.7726 l -2.1326,18 -3.39324,3.19902 L 578,679.89803 v -80.32329 c 0,-69.62899 -0.20421,-80.90208 -1.5338,-84.67054 -1.84912,-5.24098 -4.62871,-8.37904 -9.9662,-11.25152 l -4,-2.15268 -138,-0.27315 c -94.55308,-0.18716 -139.57416,0.0611 -143,0.78863 -7.38467,1.5682 -12.22596,5.19895 -15.06606,11.29889 l -2.4144,5.18563 -0.01,96.03811 -0.01,96.03811 2.25,4.44751 c 2.92667,5.78506 9.29143,10.53222 15.9791,11.91801 3.32381,0.68874 16.53275,0.99359 35.75754,0.82524 28.11716,-0.24623 30.51282,-0.40299 30.82333,-2.01698 0.31497,-1.63717 -1.72304,-1.75 -31.61092,-1.75 -34.28138,0 -37.82266,-0.43499 -43.01559,-5.2838 -5.41114,-5.05256 -5.16315,-0.0494 -5.19336,-104.77414 C 268.95841,504.07191 268.2847,512.9262 277.05112,508 L 281.5,505.5 h 140 c 139.42682,0 140.01432,0.008 143.4966,2.05407 1.92313,1.12973 4.51063,3.55878 5.75,5.39788 L 573,516.29577 v 97.40177 c 0,105.0292 0.25097,99.94436 -5.18346,105.01866 -4.02353,3.7569 -10.17172,5.2838 -21.2756,5.2838 -10.63602,0 -12.26959,0.41711 -10.40982,2.65799 0.84658,1.02007 0.75803,1.34201 -0.36915,1.34201 -0.81561,0 -4.80821,-2.71343 -8.87245,-6.02986 -4.06423,-3.31642 -9.61537,-7.14142 -12.33586,-8.5 L 509.60731,711 h 23.08556 c 21.23994,0 23.2743,-0.15283 25.44635,-1.91165 L 560.5,707.17671 V 613.5 519.82329 l -2.36078,-1.91164 C 555.84088,516.05057 552.21035,516 420.88922,516 c -132.97668,0 -134.91722,0.028 -136.86378,1.97456 -1.08601,1.08601 -2.2176,2.99851 -2.51465,4.25 -0.29704,1.25149 -0.42099,43.3778 -0.27543,93.61401 l 0.26464,91.33858 2.36078,1.91142 c 2.28057,1.84648 5.09279,1.91143 82.7641,1.91143 h 80.40331 l 3.07605,-3.25 3.07604,-3.25 -2.63792,3.65704 c -3.83091,5.31091 -4.24004,9.55308 -1.33505,13.84296 3.31897,4.90123 8.4287,7.38806 22.42481,10.91382 12.0816,3.04347 21.36788,6.39204 21.36788,7.70511 0,1.15771 -25.01384,-0.43396 -33,-2.09984 -4.125,-0.86046 -16.275,-4.22264 -27,-7.47152 -32.81049,-9.93914 -47.17066,-13.07721 -59.5,-13.00231 -10.8062,0.0657 -18.5,3.59535 -18.5,8.48728 0,3.10916 1.33315,3.88294 11,6.38455 12.02636,3.11221 51.06712,16.04882 73.5,24.35507 l 19,7.03516 23.67229,0.46935 c 24.70282,0.48978 52.85193,-0.86304 68.9527,-3.31379 15.13068,-2.3031 13.68559,-3.87272 12.23304,13.28712 -3.07306,36.30399 -3.38323,38.55014 -5.92775,42.92638 -1.33556,2.29701 -4.03987,5.50478 -6.00958,7.12837 l -3.58127,2.95199 3.52949,11.87163 c 3.53391,11.88649 6.93587,27.26868 8.20989,37.12163 l 0.67885,5.25 -3.87883,0.17638 c -2.13336,0.097 -66.82745,0.20951 -143.76465,0.25 L 272.72837,882.5 Z M 439.98555,766.25 c -0.0145,-0.75482 -9.15397,-4.66327 -40.48555,-17.31352 -16.40897,-6.62518 -41.24634,-14.52348 -42.31396,-13.45586 -0.74121,0.74121 -0.7926,0.71622 11.31396,5.50167 6.05,2.39143 21.125,8.85162 33.5,14.35599 18.00604,8.00904 23.79825,10.14474 29,10.69286 3.575,0.3767 7.0625,0.7488 7.75,0.82689 0.6875,0.0781 1.2435,-0.19553 1.23555,-0.60803 z M 195.17126,639.34501 c 2.40397,-2.17556 2.38571,-7.78804 -0.0332,-10.20695 -1.60027,-1.60027 -4.02449,-1.93777 -17.25,-2.40151 -22.0382,-0.77276 -29.0416,-3.26162 -44.58084,-15.84308 -10.86799,-8.79935 -15.78569,-11.0555 -33.691958,-15.4573 -19.040197,-4.68056 -24.077301,-5.23299 -26.632187,-2.92085 -2.223341,2.01209 -2.676981,7.39077 -0.783075,9.28468 0.691587,0.69159 4.004111,1.2 7.818499,1.2 8.396385,0 14.320857,1.77755 28.291101,8.48832 8.33675,4.00466 13.40907,7.28721 19.89077,12.87232 10.21904,8.80548 15.2914,11.92303 22.79963,14.01296 7.68352,2.13873 9.51782,2.30748 26.92126,2.47657 13.08692,0.12715 15.69808,-0.10069 17.25,-1.50516 z M 334.99725,443.84978 c -2.23352,-6.83395 -4.99895,-13.96782 -6.14542,-15.85303 l -2.08448,-3.42766 -1.80722,2.23182 c -0.99396,1.22749 -2.57476,4.2416 -3.51287,6.698 l -1.70565,4.4662 9.37919,9.28164 c 5.15856,5.1049 9.50479,9.22466 9.65829,9.15502 0.1535,-0.0696 -1.54833,-5.71803 -3.78184,-12.55199 z m 116.577,-157.45204 c 6.31532,-2.99681 12.22454,-9.2087 15.89876,-16.71306 7.24696,-14.8015 6.70946,-34.34586 -0.99777,-36.28025 -6.3762,-1.60032 -15.50915,3.82139 -19.45019,11.54647 -1.04828,2.0548 -3.55875,11.45762 -5.57882,20.89515 -3.47121,16.21716 -3.58301,17.29625 -2.03648,19.65655 1.96722,3.00237 6.95101,3.3691 12.1645,0.89514 z m 146.71183,377.58155 c 0.98234,-1.36361 3.00734,-4.47198 4.5,-6.9075 3.88664,-6.3417 8.48342,-10.43106 16.6051,-14.77211 6.87058,-3.67234 7.44395,-3.79968 17.10882,-3.79968 5.5,0 10.82351,0.48804 11.83002,1.08453 1.54288,0.91437 0.3661,1.6036 -7.5,4.39274 -9.09126,3.22355 -35.32098,16.15391 -41.33002,20.3743 l -3,2.10701 z"
         id="path2" />
    </g>
  </g>
</svg>
