<?xml version="1.0" encoding="UTF-8" standalone="no"?>
<!-- Created with Inkscape (http://www.inkscape.org/) -->

<svg
   version="1.1"
   id="svg1"
   width="285.09283"
   height="280.62003"
   viewBox="0 0 285.09283 280.62003"
   xmlns="http://www.w3.org/2000/svg"
   xmlns:svg="http://www.w3.org/2000/svg">
  <defs
     id="defs1" />
  <g
     id="g1"
     transform="translate(-56.552808,-57.431151)">
    <path
       style="fill:#d3041e"
       d="m 182.30863,335.95125 c -8.1643,-2.33138 -23.73456,-10.16762 -28.48308,-14.33503 l -3.61518,-3.17277 3.46921,-14 c 5.84913,-23.60417 17.21437,-59.49468 27.51355,-86.88561 2.25119,-5.98708 4.08294,-11.38708 4.07055,-12 -0.0124,-0.61291 -3.61239,-3.47937 -8,-6.36989 -4.38761,-2.89053 -7.97748,-5.69879 -7.97748,-6.24058 0,-0.62992 17.75646,-1.07861 49.25,-1.2445 l 49.25,-0.25942 0.32226,-2.81047 c 0.66016,-5.75742 1.10099,-5.68953 -36.9447,-5.68953 -25.52019,0 -34.87756,-0.30705 -34.87756,-1.14447 0,-1.90746 8.85287,-20.66367 15.27171,-32.35553 17.18876,-31.30921 32.62507,-47.53448 45.17463,-47.48355 12.31915,0.05 22.53142,14.98749 29.97534,43.84494 3.23509,12.5413 3.28259,12.63861 6.16926,12.63861 3.98275,0 4.10836,-2.29501 0.97307,-17.77967 -8.20006,-40.4987 -24.89748,-58.389453 -49.71908,-53.272433 -15.61563,3.2192 -33.1853,14.501703 -51.34493,32.971563 -12.39734,12.60913 -22.18656,25.43457 -34.21832,44.83146 -4.52008,7.28699 -8.93222,14.26639 -9.80475,15.50977 l -1.58643,2.2607 -42.63009,-0.2607 -42.630089,-0.26069 -1.30702,-5 c -2.66064,-10.17827 -4.55708,-28.74173 -3.93941,-38.56132 1.2251,-19.47642 6.56508,-32.8177 17.61611,-44.011693 18.00636,-18.23928 46.241189,-29.749851 88.499999,-36.079044 11.87916,-1.779167 59.64859,-1.82447 72,-0.06828 52.33643,7.441466 87.43434,25.326344 99.97934,50.946587 9.8581,20.13286 9.09793,50.78897 -2.12312,85.62111 -18.69273,58.02556 -65.31318,118.57672 -104.89098,136.2336 -15.07729,6.72644 -31.71422,8.34714 -45.44281,4.42684 z M 306.71512,201.56547 c 4.76371,-3.63347 6.94178,-8.05528 6.97349,-14.15726 0.0774,-14.88744 -16.95338,-22.44503 -28.56379,-12.67552 -9.04809,7.61348 -7.22758,22.75487 3.3845,28.14916 5.87645,2.9871 13.26396,2.45294 18.2058,-1.31638 z M 98.059311,261.69345 c -7.79658,-11.76107 -13.93688,-22.68552 -20.13476,-35.82254 -6.66313,-14.12319 -12.90933,-30.77891 -12.21813,-32.58014 0.42082,-1.09664 7.49989,-1.34732 38.048399,-1.34732 32.82433,0 37.53138,0.1896 37.53138,1.51176 0,0.83147 -3.66412,8.81897 -8.14249,17.75 -4.47838,8.93103 -12.25165,25.23824 -17.27393,36.23824 -9.94257,21.77658 -10.31301,22.5 -11.52152,22.5 -0.45095,0 -3.28097,-3.7125 -6.288949,-8.25 z"
       id="path8" />
  </g>
</svg>
