<?xml version="1.0" encoding="UTF-8" standalone="no"?>
<!-- Created with Inkscape (http://www.inkscape.org/) -->

<svg
   version="1.1"
   id="svg1"
   width="400"
   height="400"
   viewBox="0 0 400 400"
   xmlns="http://www.w3.org/2000/svg"
   xmlns:svg="http://www.w3.org/2000/svg">
  <defs
     id="defs1" />
  <g
     id="g1"
     transform="translate(3.0934018e-7,-0.34275925)">
    <g
       id="g8"
       transform="translate(-3.0934019e-7,0.34275924)">
      <path
         style="fill:#fcfcfc"
         d="M 0,200 V 0 H 200 400 V 200 400 H 200 0 Z"
         id="path15" />
      <path
         style="fill:#d0d0d0"
         d="M 0,200 V 0 H 200 400 V 200 400 H 200 0 Z m 221.5,70.9584 c 42.2244,-2.84495 50.92153,-12.32052 62.37554,-67.9584 6.47733,-31.4637 7.81456,-49.89134 4.22767,-58.25921 -3.6358,-8.48198 -11.7502,-12.96248 -26.70864,-14.74763 -13.7569,-1.64175 -66.56931,-2.34038 -82.89457,-1.09657 -42.36185,3.22752 -50.95014,12.60446 -62.37554,68.10341 -6.4686,31.4213 -7.81353,49.89375 -4.23965,58.23128 3.07564,7.17516 9.46243,11.57753 20.10865,13.86074 12.4858,2.67772 62.10769,3.71244 89.50654,1.86638 z m -43,-25.03532 c -12.99477,-1.31064 -27.75572,-6.06265 -44,-14.16498 -5.5,-2.74329 -10.15579,-5.1294 -10.3462,-5.30248 -0.74769,-0.67963 6.16889,-12.3906 8.81556,-14.92626 4.86908,-4.66488 9.16935,-4.45595 19.03064,0.92461 18.34602,10.01003 28.36028,13.89522 40.11137,15.56182 12.91196,1.83125 24.19802,-1.65702 32.64409,-10.08956 2.3405,-2.33676 4.46997,-4.03414 4.73214,-3.77196 0.26218,0.26217 -1.06371,3.69095 -2.94642,7.6195 -8.97619,18.73017 -24.48341,26.52533 -48.04118,24.14931 z m 14.24797,-24.28849 c -10.10886,-3.77277 -16.53151,-12.42911 -16.97944,-22.88459 -0.15738,-3.67345 -0.579,-4.75 -1.86029,-4.75 -3.20965,0 -10.21818,3.04149 -16.17567,7.01974 -3.31303,2.21236 -6.22757,3.8186 -6.47675,3.56941 -0.89035,-0.89034 7.34798,-12.17801 13.06917,-17.9066 14.45241,-14.47111 34.89081,-17.96801 59.33272,-10.15151 8.28413,2.64926 41.3147,18.42542 41.33209,19.74116 0.006,0.42471 -1.80182,4.37613 -4.01652,8.78095 -7.23761,14.39488 -12.10079,15.10004 -30.16964,4.37456 -15.66715,-9.29986 -35.00618,-16.71517 -39.29787,-15.0683 -1.94528,0.74648 -1.0335,5.78668 2.01728,11.15134 4.7168,8.29427 15.58968,10.92945 24.82801,6.01738 5.25443,-2.7938 5.84202,-2.09948 2.04354,2.41476 -6.29377,7.47973 -18.85258,10.97377 -27.64663,7.6917 z m 52.45553,-42.77088 c -19.3775,-8.58107 -38.76069,-12.18702 -53.66555,-9.98367 -3.82913,0.56605 -7.20126,0.78999 -7.49361,0.49763 -0.82247,-0.82246 5.84245,-5.9784 12.03711,-9.31183 3.06981,-1.6519 8.24481,-3.70705 11.5,-4.56701 7.84624,-2.07281 22.85809,-2.11409 33.60443,-0.0924 9.85489,1.85397 33.41451,9.138 34.32593,10.61269 1.08288,1.75214 -5.85427,13.33425 -9.40969,15.71021 -4.84337,3.23665 -8.13924,2.78473 -20.89862,-2.8656 z"
         id="path14" />
      <path
         style="fill:#afafaf"
         d="M 0,200 V 0 H 200 400 V 200 400 H 200 0 Z m 238.95543,69.54059 c 17.26456,-3.30273 27.95838,-11.57554 34.1317,-26.40454 6.12921,-14.72301 14.489,-52.58872 16.92694,-76.67066 1.9127,-18.8936 -1.96499,-28.02004 -14.20496,-33.43242 -8.23537,-3.64159 -18.99857,-4.40796 -62.80911,-4.47216 -35.79979,-0.0525 -42.79742,0.18419 -50.94575,1.72289 -17.33273,3.27306 -28.00441,10.85153 -34.11091,24.2238 -6.72759,14.73239 -15.21244,52.08228 -17.95274,79.02711 -2.40744,23.67185 4.95407,33.73647 26.67688,36.4725 13.52275,1.70321 15.9369,1.76671 55.33252,1.45532 30.32031,-0.23966 40.29644,-0.64797 46.95543,-1.92184 z m -68.85512,-25.02957 c -3.51983,-0.79556 -10.04483,-2.64279 -14.5,-4.10495 -8.68801,-2.85136 -29.93718,-12.52409 -30.88614,-14.05954 -0.87702,-1.41904 6.41249,-13.3607 9.60974,-15.74269 4.50129,-3.3535 10.21702,-2.69462 18.35571,2.11596 22.68004,13.40558 41.38866,18.42785 55.33586,14.85475 7.30844,-1.87234 14.86967,-6.3459 18.49172,-10.94053 3.46033,-4.38948 3.19968,-1.36805 -0.525,6.08569 -4.59784,9.20108 -9.9831,14.67726 -18.64202,18.95673 -7.2185,3.56757 -8.01011,3.73267 -19.18468,4.00109 -7.53262,0.18093 -13.91925,-0.23169 -18.05519,-1.16651 z M 194,221.839 c -9.83187,-2.68071 -17.15418,-11.89656 -17.8252,-22.4348 -0.40184,-6.31078 -0.43679,-6.37725 -3.04066,-5.78383 -4.24736,0.96797 -13.27741,5.25153 -16.90763,8.02043 -1.84683,1.40865 -3.62153,2.29751 -3.94378,1.97526 -0.96685,-0.96684 6.19844,-10.99461 11.78674,-16.49546 10.05783,-9.90043 20.69776,-14.15502 35.52512,-14.20544 10.62133,-0.0361 18.8499,1.68513 31.6565,6.62188 8.20616,3.16335 30.95597,14.46062 33.04142,16.40796 1.27563,1.19115 -7.08278,16.68756 -10.04931,18.6313 -4.04076,2.64761 -10.12167,2.237 -15.84797,-1.07012 -17.60295,-10.16627 -24.55788,-13.63642 -32.69852,-16.31489 -15.54057,-5.11323 -16.99807,-4.73791 -14.70278,3.78615 3.22883,11.99096 19.13442,17.47911 29.16494,10.06322 4.29746,-3.17725 3.40388,-0.76131 -1.55111,4.19368 -6.6282,6.6282 -15.64521,9.04835 -24.60776,6.60466 z m 61,-39.20661 c -1.925,-0.74565 -7.325,-3.02811 -12,-5.07213 -17.54406,-7.67068 -38.22314,-11.12031 -52.5,-8.7579 -3.3,0.54605 -6.19215,0.80925 -6.427,0.5849 -1.17449,-1.12202 12.10631,-9.58473 19.427,-12.37916 8.3292,-3.1794 24.63966,-3.86114 37,-1.54651 8.67786,1.62504 33.19672,9.00045 34.76486,10.45747 1.16189,1.07956 -5.41978,13.24233 -8.26486,15.27325 -3.50345,2.5009 -7.89941,3.02844 -12,1.44008 z"
         id="path13" />
      <path
         style="fill:#8f8f8f"
         d="M 0,200 V 0 H 200 400 V 200 400 H 200 0 Z m 239.21464,69.68356 c 19.96421,-3.89357 30.07769,-13.47378 37.14199,-35.18356 5.3106,-16.32037 11.7712,-47.99157 13.68199,-67.0719 1.80545,-18.02843 -0.50773,-25.98524 -9.28905,-31.9523 -8.96564,-6.09231 -29.10003,-7.92645 -78.74957,-7.17369 -36.18484,0.54861 -44.44218,1.46464 -54.4327,6.03845 -7.21483,3.30306 -14.56464,10.28816 -18.33209,17.42244 -8.22702,15.57918 -19.37619,66.26227 -19.63018,89.237 -0.12669,11.45885 1.1483,15.51803 6.5804,20.95014 4.80974,4.80974 12.69519,7.54986 25.81457,8.97031 13.88943,1.50383 87.99625,0.56094 97.21464,-1.23689 z M 172.5,244.84699 c -12.14497,-2.25733 -33.4054,-10.15878 -44.17707,-16.41843 l -4.17707,-2.42739 3.67234,-6.60714 c 6.56638,-11.81398 12.98356,-13.6966 23.95951,-7.02907 18.5363,11.26021 37.02501,17.2782 50.11668,16.31274 9.07269,-0.66908 18.19306,-4.81833 23.498,-10.69027 4.40362,-4.87428 4.54476,-3.73699 0.56983,4.59174 -3.49073,7.31415 -10.75743,15.25538 -16.76332,18.31936 -9.31171,4.75048 -23.92483,6.32272 -36.6989,3.94846 z M 193.88228,221.6759 C 182.42225,217.40174 176,208.66719 176,197.35522 c 0,-4.27863 -0.0718,-4.37689 -2.75,-3.76393 -4.04089,0.92485 -12.52641,4.84491 -16.85622,7.7871 -2.07905,1.41275 -3.95849,2.39024 -4.17653,2.17219 -0.21805,-0.21804 1.3882,-3.01862 3.56944,-6.22351 4.35434,-6.39784 12.7507,-14.70952 18.21331,-18.02965 14.1206,-8.58238 34.26584,-8.45105 57.42942,0.3744 8.03989,3.06325 29.39343,13.8301 31.52065,15.89331 1.26293,1.22493 1.00482,2.3272 -2,8.54113 -6.76255,13.98485 -12.46523,15.34035 -27.36313,6.50407 -16.29401,-9.66434 -29.19424,-15.18401 -39.83694,-17.04517 -3.71029,-0.64884 -3.74977,-0.62089 -3.72804,2.63953 0.0121,1.81242 0.84805,5.11393 1.8577,7.33668 4.68919,10.32322 16.98607,14.17608 26.87034,8.41903 4.12724,-2.40389 4.14792,-1.25849 0.0529,2.92999 -6.47432,6.62208 -17.38984,9.59422 -24.92063,6.78551 z m 52.80105,-42.67711 c -19.17521,-8.59927 -33.50871,-11.61302 -50.99225,-10.72161 L 184.5,168.84777 188,165.8462 c 17.4389,-14.95543 45.66813,-15.53743 82.6495,-1.70396 l 5.1495,1.92626 -2.1495,5.14212 c -1.18222,2.82817 -3.55263,6.63776 -5.26758,8.46575 -4.46984,4.76451 -9.9447,4.59355 -21.69859,-0.67758 z"
         id="path12" />
      <path
         style="fill:#6f6f6f"
         d="M 0,200 V 0 H 200 400 V 200 400 H 200 0 Z m 229.78941,70.95635 c 26.83136,-2.88371 38.09307,-11.39509 46.12223,-34.85826 6.84487,-20.00239 14.33398,-59.59618 14.48843,-76.59809 0.088,-9.68793 -0.18428,-11.57729 -2.28278,-15.83986 C 281.58504,130.39153 269.83042,128.00881 211,128.02808 c -43.54172,0.0143 -55.86199,1.55264 -67.46723,8.42439 -12.74438,7.54626 -19.2638,20.99858 -26.92007,55.54753 -4.38639,19.79358 -6.88164,37.08383 -6.99932,48.5 -0.10002,9.70374 0.1674,11.57034 2.26933,15.83986 4.23335,8.59897 12.29921,12.68774 28.61729,14.50676 11.40537,1.27139 77.72249,1.35289 89.28941,0.10973 z M 170,244.04089 c -4.675,-1.00012 -11.425,-2.81576 -15,-4.03477 -9.49534,-3.23774 -30,-13.13903 -30,-14.48641 0,-2.27411 7.6539,-13.76497 10.05405,-15.09422 4.94802,-2.74032 9.69145,-1.78058 19.97365,4.04125 31.12135,17.62106 53.59139,19.06501 69.43389,4.4619 4.06469,-3.7467 4.49419,-3.94253 3.62336,-1.65206 -9.02072,23.72627 -29.08019,32.96924 -58.08495,26.76431 z m 24.18999,-22.52 c -10.90624,-3.40427 -18.03067,-12.96457 -18.1461,-24.35035 L 176,192.84109 l -3.21012,0.70506 c -4.61146,1.01285 -11.80356,4.23326 -15.28877,6.84586 -5.44216,4.07957 -5.86719,4.03224 -3.39997,-0.37864 6.75355,-12.07394 20.98921,-23.04334 33.76674,-26.01923 7.88496,-1.83641 22.72289,-0.76265 33.63212,2.43382 10.07435,2.95185 41.22942,17.70334 42.08205,19.92527 0.80295,2.09246 -6.03129,15.06708 -9.29234,17.64125 -4.33461,3.42161 -11.27728,2.45577 -19.45009,-2.70583 -10.54752,-6.66136 -24.21719,-13.11703 -33.42486,-15.78531 -11.14692,-3.23025 -11.41955,-3.21239 -11.3928,0.74666 0.0476,7.04023 5.17369,14.26249 12.20957,17.20227 5.19777,2.17177 9.67496,1.92973 15.09899,-0.81626 2.56821,-1.3002 4.66948,-2.03251 4.66948,-1.62736 0,2.11746 -9.30734,9.00514 -14.08653,10.42441 -6.25403,1.85724 -8.01861,1.86854 -13.72348,0.0878 z m 52.50417,-42.58474 c -19.58129,-8.76731 -32.30553,-11.47391 -50.14617,-10.6667 L 184.5,168.81457 188,165.84612 c 5.16464,-4.38028 16.5415,-9.45187 24.40156,-10.87777 8.08917,-1.46745 22.87798,-0.76403 32.59844,1.55052 11.25229,2.67931 29.16066,8.73622 29.65737,10.03062 0.74711,1.94694 -5.24643,12.95123 -8.05695,14.79275 -4.10819,2.6918 -10.15197,1.96128 -19.90626,-2.40609 z"
         id="path11" />
      <path
         style="fill:#4f4f4f"
         d="M 0,200 V 0 H 200 400 V 200 400 H 200 0 Z m 231.21078,70.90244 c 21.49264,-2.29265 33.30914,-9.3598 40.67829,-24.32868 5.15738,-10.47612 11.32364,-34.27769 16.72909,-64.57376 0.93582,-5.24499 1.73684,-15.0987 1.78842,-22 0.0832,-11.13891 -0.15057,-12.95646 -2.14735,-16.69207 -4.604,-8.61324 -13.52047,-12.79114 -30.50812,-14.29488 -17.38606,-1.53901 -79.17535,-1.25038 -91.78662,0.42875 -19.84004,2.6416 -30.74944,9.55392 -37.85356,23.98444 -8.4268,17.11725 -19.95727,73.04701 -18.87884,91.57376 0.93385,16.04298 9.55601,23.53212 29.7892,25.87467 11.10391,1.28557 80.20291,1.30639 92.18949,0.0278 z m -58.88037,-26.38379 c -3.94327,-0.71546 -10.91827,-2.53338 -15.5,-4.03981 C 146.73969,237.1611 125,227.0823 125,225.72186 c 0,-2.06146 6.22569,-11.73398 9.12017,-14.16953 4.85281,-4.08336 9.45867,-3.51235 19.7972,2.45437 18.91012,10.91367 33.99666,15.60812 47.35146,14.73427 10.17824,-0.666 16.06265,-3.10012 22.85601,-9.45451 l 5.10694,-4.77694 -1.66842,3.99524 c -9.25958,22.17333 -27.9314,30.96748 -55.23295,26.01389 z M 197.5,222.30319 c -8.61254,-1.86682 -15.07743,-6.59441 -18.68335,-13.66258 -1.12118,-2.19771 -2.2761,-6.6159 -2.56647,-9.81822 -0.40651,-4.48299 -0.89858,-5.81693 -2.13907,-5.79865 -2.75806,0.0406 -12.43136,4.4125 -17.53961,7.92706 -5.3315,3.66817 -5.28614,3.428 1.05606,-5.59186 16.08172,-22.87136 40.57119,-28.16946 72.78696,-15.74687 10.74489,4.1433 32.61837,15.31006 33.25888,16.9792 0.71856,1.87255 -6.29374,14.96493 -9.26855,17.30492 -4.98862,3.92405 -9.27821,2.95943 -23.84026,-5.36104 C 217.14078,200.86504 207.63551,196.73216 198,194.3761 c -7.77032,-1.9 -8,-1.84089 -8,2.0588 0,7.11884 4.28384,13.32827 11.5,16.66924 6.49906,3.00897 13.68667,2.23012 18.89551,-2.0475 1.7852,-1.46605 1.83016,-1.43198 0.77254,0.5855 -1.48524,2.83321 -6.92443,7.35941 -10.66805,8.87739 -3.62281,1.46899 -10.25414,2.37884 -13,1.78366 z m 48.16524,-43.93296 c -5.40912,-2.43546 -13.73412,-5.62483 -18.5,-7.08749 -7.86325,-2.41325 -10.21832,-2.66509 -25.44578,-2.72106 l -16.78055,-0.0617 3.28055,-2.7062 c 1.8043,-1.48841 5.98054,-4.08096 9.28054,-5.76122 16.0962,-8.19568 36.00058,-7.74963 64.18114,1.4383 15.07442,4.91483 14.4702,4.21743 10.43796,12.04771 -5.6535,10.97861 -10.76423,11.91592 -26.45386,4.85164 z"
         id="path10" />
      <path
         style="fill:#2d2d2d"
         d="M 0,200 V 0 H 200 400 V 200 400 H 200 0 Z m 232,71.01436 c 33.41868,-4.16147 42.39614,-16.26434 53.41759,-72.01436 9.37223,-47.40775 7.27803,-60.10626 -11.04302,-66.96104 -8.61614,-3.22371 -23.44483,-4.24774 -62.87457,-4.34194 -28.93461,-0.0691 -37.9764,0.23611 -46.07027,1.55528 -31.73201,5.17177 -39.98897,16.82269 -50.84732,71.7477 -8.93443,45.19325 -7.37645,58.13544 7.91759,65.77141 5.82038,2.90598 14.17141,4.37454 30,5.27561 17.79788,1.01317 68.34348,0.35661 79.5,-1.03266 z m -59.40292,-26.62099 c -4.3466,-0.78494 -11.89512,-2.76467 -16.77447,-4.3994 -9.6579,-3.23569 -29.15803,-12.10965 -30.15492,-13.72264 -0.92805,-1.50161 4.9924,-11.80753 8.45858,-14.72412 4.1518,-3.49351 8.93778,-3.34246 15.87373,0.50099 13.18082,7.30395 26.34054,13.13421 34.04113,15.08152 16.55422,4.18621 31.07727,1.35928 40.40078,-7.86407 3.44815,-3.41111 3.738,-3.53027 3.07848,-1.26565 -1.17809,4.04524 -5.53898,11.06485 -9.63368,15.50707 -4.95588,5.3765 -12.16614,9.23296 -20.60632,11.02144 -8.30085,1.75895 -14.37901,1.72567 -24.68331,-0.13514 z M 190.2214,219.82571 C 182.14929,215.91171 176,205.74726 176,196.3185 176,194.07322 175.52702,193 174.53751,193 c -2.82582,0 -12.61791,4.18935 -17.55007,7.50846 -5.60329,3.77073 -5.44272,3.04682 1.37989,-6.22104 7.65595,-10.39987 17.39531,-17.076 28.85119,-19.7769 12.24174,-2.88618 25.21147,-1.31981 42.78148,5.16678 8.34736,3.08172 31.08018,14.19885 33.3189,16.29408 1.05424,0.98667 -5.77457,15.22603 -8.47322,17.66828 -1.44759,1.31005 -3.58867,1.86034 -7.2382,1.86034 -4.50794,0 -6.41424,-0.7323 -14.64501,-5.62585 -16.39128,-9.74532 -28.54159,-14.93869 -38.41391,-16.41914 l -4.82888,-0.72413 0.49101,5.10997 c 1.26562,13.17159 15.4744,21.18273 27.07787,15.26695 4.40359,-2.24508 4.74915,-1.47371 0.96144,2.14616 -6.97483,6.66576 -19.49745,8.70832 -28.0286,4.57175 z m 59.91013,-39.84006 c -18.92702,-8.95394 -33.51587,-12.30127 -51.5767,-11.83399 l -13.46356,0.34834 2.70437,-2.24466 c 1.4874,-1.23457 6.13497,-3.99251 10.32794,-6.12877 16.11357,-8.20963 34.66271,-7.79976 63.37642,1.40042 6.05,1.93849 11.58789,3.89268 12.30643,4.34266 1.92088,1.20293 -2.6426,10.97327 -6.7329,14.41502 -4.28594,3.60639 -8.85721,3.5257 -16.942,-0.29902 z"
         id="path9" />
      <path
         style="fill:#000000"
         d="M 0,200 V 0 H 200 400 V 200 400 H 200 0 Z m 221.4972,71.94904 c 16.98632,-1.1553 25.3115,-2.80493 32.47482,-6.43486 14.13856,-7.16455 20.5723,-18.4819 27.86382,-49.01418 5.2348,-21.92008 8.29995,-40.40827 8.88159,-53.57151 0.65463,-14.81528 -0.19351,-18.31992 -5.94304,-24.55742 -7.73121,-8.38738 -16.80027,-10.02855 -60.77439,-10.99796 -30.44077,-0.67107 -55.6707,0.52384 -66.90693,3.16876 -13.37819,3.14911 -23.1498,10.63063 -28.89644,22.12421 -10.95453,21.90965 -22.72523,87.11213 -18.2008,100.82129 1.89867,5.75303 8.27499,12.09611 14.50122,14.42564 5.36108,2.00584 16.9692,3.82938 28.00295,4.39905 14.99093,0.77396 55.40666,0.56133 68.9972,-0.36302 z M 178.5,244.92465 c -13.2371,-1.47751 -29.13634,-6.69716 -45.57335,-14.96153 l -8.05782,-4.05139 3.39652,-6.20587 C 131.98778,212.90452 136.70067,209 141.18772,209 c 3.37737,0 11.12546,3.68424 10.35836,4.92544 -0.2885,0.46681 0.0331,0.794 0.71468,0.72709 0.68158,-0.0669 5.96424,2.18446 11.73924,5.00305 26.12909,12.75279 44.0435,13.09364 59.25,1.12732 2.0625,-1.62303 3.75,-2.54917 3.75,-2.0581 0,1.35423 -6.84757,12.46157 -9.29753,15.08139 -8.30933,8.88541 -22.68384,12.96226 -39.20247,11.11846 z m 11.69477,-25.51488 c -8.73094,-4.35081 -13.4675,-12.24044 -13.4675,-22.43264 0,-3.62777 -0.22958,-3.97505 -2.61363,-3.95339 -3.6448,0.0331 -13.02147,4.04462 -17.63675,7.54534 l -3.86406,2.93092 1.94359,-3.31044 c 3.00613,-5.12023 9.52564,-12.70038 13.94358,-16.21202 16.13021,-12.82123 35.84259,-13.93397 62.99554,-3.55604 5.64747,2.15848 31.01567,14.75638 32.29909,16.03979 0.18246,0.18247 -1.50811,3.99105 -3.75682,8.46351 -3.26278,6.48934 -4.79638,8.4693 -7.59301,9.80291 -4.45307,2.12353 -9.94437,0.84695 -17.70118,-4.11502 -6.62712,-4.23932 -22.22088,-12.15996 -27.95704,-14.2004 -2.35762,-0.83864 -7.09908,-2.11954 -10.53658,-2.84644 L 190,192.24422 v 4.41773 c 0,4.67105 2.54732,10.7498 5.64359,13.46746 5.5284,4.8524 15.48292,6.40789 21.40607,3.34491 4.05644,-2.09766 3.71284,-0.15769 -0.54763,3.09193 -7.86942,6.0023 -17.81185,7.07696 -26.30726,2.84352 z m 57.08556,-40.83907 c -21.17351,-9.24978 -38.08291,-12.68034 -53.52813,-10.85975 l -7.7478,0.91327 2.11422,-2.25048 c 2.78769,-2.96737 15.0857,-8.97251 21.38138,-10.44057 7.33657,-1.71079 22.77916,-1.45251 32.46705,0.54301 8.74635,1.80158 33.03295,9.21943 33.03295,10.08924 0,0.27039 -1.3008,3.06628 -2.89066,6.2131 -5.78591,11.45207 -9.75405,12.37777 -24.82901,5.79218 z"
         id="path8" />
    </g>
  </g>
</svg>
