<?xml version="1.0" encoding="utf-8"?>
<!-- Generator: Adobe Illustrator 18.1.1, SVG Export Plug-In . SVG Version: 6.00 Build 0)  -->
<svg version="1.1" id="Layer_1" xmlns="http://www.w3.org/2000/svg" xmlns:xlink="http://www.w3.org/1999/xlink" x="0px" y="0px"
	 viewBox="-273 379 50 50" enable-background="new -273 379 50 50" xml:space="preserve">
<g>
	<circle cx="-249.8" cy="400" r="3"/>
	<path d="M-231.2,387.7c-1.8-4.6-11.8-4.4-21.8,0.2c-5.4,2.5-9.7,5.7-12.3,8.9c2-1.6,4.4-3.2,7.2-4.4c8.4-3.9,16.8-3.8,18.6,0.1
		c2,4.4-3.7,9.2-7.1,10.8c-1.9,0.9-4,1.5-6.1,1.5c0,0-3,7.7,6,18.8c-1.1-3.2-1.3-5.6-1.2-7.5c0-2.5,0.5-4.9,1.4-7.2
		c0.5-1.3,1.2-2.6,2.1-3.7c1.1-1.4,3.3-3.3,5.1-4.7c1-0.7,1.9-1.5,2.9-2.2C-233.1,395.7-229.5,391.9-231.2,387.7z"/>
</g>
</svg>
