<?xml version="1.0" encoding="UTF-8"?><svg id="Layer_1" xmlns="http://www.w3.org/2000/svg" viewBox="0 0 214.8 257.1"><defs><style>.cls-1{fill:#ec691a;}.cls-2{fill:#7d7d7d;}</style></defs><g><rect class="cls-2" x="104.9" y="240.9" width="3.4" height="16.2"/><path class="cls-2" d="M62.1,244.3l4,6.8h-8.1l4.1-6.8Zm-1.8-3.4l-9.7,16.2h3.9l1.8-3h11.6l1.8,3h3.9l-9.7-16.2h-3.6Z"/><polygon class="cls-2" points="120.4 240.9 108.4 249 120.5 257.1 126.2 257.1 114.2 249 126.2 240.9 120.4 240.9"/><polygon class="cls-2" points="154.1 240.9 145.6 253 137 240.9 132.6 240.9 132.6 257.1 136 257.1 136 245.2 144.4 257.1 146.8 257.1 155.1 245.2 155.1 257.1 158.5 257.1 158.5 240.9 154.1 240.9"/><path class="cls-2" d="M176.3,244.3l4,6.8h-8.1l4.1-6.8Zm-1.8-3.4l-9.7,16.2h3.9l1.8-3.1h11.6l1.8,3.1h3.9l-9.7-16.2h-3.6Z"/><polygon class="cls-2" points="211.4 240.9 211.4 253.3 198.4 240.9 194.1 240.9 194.1 257.1 197.5 257.1 197.5 244.7 210.6 257.1 214.8 257.1 214.8 240.9 211.4 240.9"/><polygon class="cls-2" points=".2 240.9 .2 243.8 8 243.8 8 257.1 11.4 257.1 11.4 243.8 18.3 243.8 20.1 240.9 .2 240.9"/><g><path class="cls-2" d="M94.5,252.1c-.4,1.2-1.5,2-2.7,2h-7.3c-1.3,0-2.5-.8-2.8-2.3-.3-2-.4-3.9,0-5.7,.3-1.4,1.4-2.4,2.8-2.4s7.3,0,7.3,0c1.3,0,2.3,.8,2.7,2l2.9-1.9c-.8-1.6-2.6-3-5-3h-8.4c-2.7,0-4.7,1.9-5.3,4-.7,2.2-.6,6,0,8.1,.7,2.2,2.5,4.1,5.4,4.1h8.4c2.5,0,4.2-1.4,5.1-3l-2.9-1.9Z"/><path class="cls-2" d="M39.6,249h-9.8v-5.2h9.8c1.4,0,2.5,1.1,2.6,2.6,0,1.5-1.2,2.6-2.6,2.6m5.6-2.6c0-3.2-2.3-5.5-5.1-5.5h-13.7v16.2h3.4v-5.2h8.5l3.1,5.2h3.9l-3.3-5.6c1.9-.8,3.3-2.7,3.3-5.1"/></g></g><g><path class="cls-1" d="M198.2,0c9.2,0,16.6,7.4,16.6,16.6V198.2c0,9.2-7.4,16.6-16.6,16.6H85.5c-1.6,0-2.9-1.4-2.7-3C92.9,125.4,138.9,33.9,169.4,.3,169.6,.1,169.9,0,170.2,0h28Z"/><path class="cls-1" d="M16.6,0H153.7c.3,0,.5,.4,.2,.6C97.2,48.2,52.5,145.4,33.9,212.1c-.4,1.6-1.9,2.7-3.5,2.7h-13.8C7.4,214.8,0,207.4,0,198.2V16.6C0,7.4,7.4,0,16.6,0Z"/></g></svg>